<?xml version="1.0" standalone="no"?>
<!DOCTYPE svg PUBLIC "-//W3C//DTD SVG 1.1//EN" "http://www.w3.org/Graphics/SVG/1.1/DTD/svg11.dtd" >
<svg xmlns="http://www.w3.org/2000/svg">
<metadata>Generated by IcoMoon</metadata>
<defs>
<font id="icomoon" horiz-adv-x="512">
<font-face units-per-em="512" ascent="480" descent="-32" />
<missing-glyph horiz-adv-x="512" />
<glyph unicode="&#x20;" d="" horiz-adv-x="256" />
<glyph unicode="&#xe600;" d="M416.426 423.68h-10.24v23.893c0 8.534-5.12 15.36-13.654 15.36s-15.36-6.827-15.36-15.36v-25.6h-233.814v25.6c0 8.534-5.12 15.36-13.654 15.36s-15.36-6.827-15.36-15.36v-25.6h-18.773c-40.96 0-73.386-32.426-73.386-73.387v-291.84c0-40.96 32.426-73.387 73.386-73.387h320.853c40.96 0 73.387 32.426 73.387 73.387v293.546c0 39.254-32.426 73.387-73.387 73.387zM460.8 58.454c0-23.894-20.48-44.373-44.373-44.373h-320.853c-23.894 0-44.373 20.48-44.373 44.373v213.334c1.706 0 1.706 0 3.413 0h392.534c5.12 0 8.534 0 13.654 1.707v-215.040zM460.8 299.094c-3.413 1.707-8.534 1.707-13.654 1.707h-392.534c-1.706 0-1.706 0-3.413 0v49.493c0 23.894 20.48 44.374 44.374 44.374h18.773v-18.774c0-8.534 6.826-15.36 15.36-15.36s15.36 6.827 15.36 15.36v18.774h233.813v-18.774c-1.707-8.534 5.12-15.36 13.654-15.36s15.36 6.827 15.36 15.36v18.774h10.24c22.187 0 42.666-20.48 42.666-44.374v-51.2zM269.654 220.587v0 0c0 0 0 0 0 0s0 0 0 0h-29.013c-8.534 0-15.36-6.827-15.36-15.36s6.827-15.36 15.36-15.36h15.36v-116.053c0-8.534 6.827-15.36 15.36-15.36s15.36 6.827 15.36 15.36v133.12c-1.707 6.827-8.534 13.654-17.067 13.654z" />
<glyph unicode="&#xe601;" d="M471.040 80.64l-17.067 100.693c-1.707 5.12-5.12 10.24-10.24 10.24l-76.8 39.254c18.774 17.066 30.72 40.96 30.72 66.56v73.387c0 51.2-39.254 92.16-90.454 92.16-25.6 0-49.493-10.24-64.853-29.014-10.24 3.413-18.774 5.12-30.72 5.12-51.2 0-92.16-40.96-92.16-92.16v-71.68c0-25.6 11.947-49.493 29.013-66.56l-80.213-40.96c0 0 0 0 0 0s-1.707-1.707-1.707-1.707c0 0-1.707-1.707-1.707-1.707s0-1.707-1.706-1.707c0-1.707 0-1.707-1.706-3.413 0 0 0 0 0-1.707l-17.067-100.694c-3.413-18.774 1.706-37.546 11.947-51.2 8.534-13.654 25.6-20.48 44.374-20.48h220.16c18.774 0 35.84 6.827 46.080 22.187 11.947 13.654 15.36 32.426 11.947 51.2l-17.067 100.693c-1.707 5.12-5.12 10.24-10.24 10.24l-78.507 39.254c18.774 17.066 29.014 40.96 29.014 66.56v71.68c0 29.014-13.654 56.32-35.84 73.387 11.947 8.534 23.894 13.654 39.254 13.654 35.84 0 61.44-29.014 61.44-63.147v-71.68c0-29.013-17.067-52.906-44.373-61.44-3.413-11.946-6.827-22.186-13.654-30.72 8.534 1.707 17.067 3.413 25.6 6.827l90.454-46.080 17.067-93.867c1.707-10.24 0-20.48-6.827-29.014-5.12-6.827-15.36-11.947-25.6-11.947v0c0-10.24-1.707-20.48-5.12-29.014h8.534c18.774 0 35.84 8.534 46.080 22.187 10.24 17.067 15.36 35.84 11.947 54.613zM336.214 145.493l17.067-92.16c1.707-10.24 0-20.48-6.827-27.307-5.12-6.827-15.36-11.947-25.6-11.947h-220.16c-10.24 0-18.773 3.413-25.6 11.947-6.826 6.827-8.534 15.36-6.826 27.307l17.067 93.866 88.746 46.080c11.946-5.12 23.893-6.827 37.547-6.827s25.6 3.413 35.84 6.827l88.746-47.786zM276.48 346.88v-71.68c0-35.84-29.013-63.147-64.853-63.147s-64.853 29.013-64.853 63.147v71.68c0 35.84 29.013 63.147 64.853 63.147 35.84 1.707 64.853-27.306 64.853-63.147z" />
<glyph unicode="&#xe602;" d="M256-14.933c-39.254 0-73.387 29.014-80.214 66.56h-143.36c-6.826 0-11.947 3.413-15.36 10.24-1.707 6.827 0 13.654 5.12 17.067 5.12 5.12 13.653 10.24 18.774 15.36 3.413 1.707 5.12 5.12 8.534 6.827 17.067 13.654 30.72 25.6 30.72 47.786v95.573c0 85.333 49.494 157.013 122.88 179.2v0c6.827 20.48 15.36 39.253 47.786 39.253 25.6 0 40.96-13.654 49.494-40.96v0c73.387-22.187 122.88-93.867 122.88-179.2v-98.987c0-18.774 10.24-27.307 25.6-39.254 5.12-3.413 8.534-6.827 13.654-10.24 3.413-3.413 11.947-8.534 23.894-15.36 5.12-1.707 10.24-8.534 10.24-13.654 0-8.534-6.827-15.36-15.36-15.36 0 0 0 0 0 0h-143.36c-10.24-35.84-42.666-64.853-81.92-64.853zM206.506 51.627c6.827-20.48 25.6-35.84 47.786-35.84s42.667 15.36 47.787 35.84h-95.573zM322.56 82.346h107.52c-17.067 11.947-37.546 29.014-37.546 63.147v98.987c0 71.68-40.96 131.414-100.693 148.48l-8.534 1.707c-5.12 1.707-10.24 5.12-10.24 10.24l-1.707 8.534c-5.12 17.066-11.947 18.773-20.48 18.773-10.24 0-11.946 0-17.066-17.066l-1.707-8.534c-1.707-5.12-5.12-8.534-10.24-10.24l-8.534-3.413c-61.44-18.774-102.4-78.507-102.4-150.186v-95.573c0-32.426-17.067-51.2-34.133-66.56h245.76z" />
<glyph unicode="&#xe603;" d="M300.373 213.76c0 69.974-58.026 128-128 128s-128-58.026-128-128c0-69.974 58.026-128 128-128 71.68 0 128 58.026 128 128zM78.507 213.76c0 52.906 42.666 95.573 95.573 95.573s95.574-42.666 95.574-95.573-42.666-95.573-95.573-95.573-95.573 42.666-95.573 95.573zM465.92 328.106c0 1.707 0 3.413 0 3.413s0 1.707 0 1.707-1.707 3.413-3.413 5.12c0 0 0 0 0 0l-124.587 124.587c0 0-15.36 0-15.36 0h-158.72c-44.374 0-80.213-27.306-80.213-71.68v-47.787c15.36 6.827 15.36 13.654 32.426 18.774v29.014c0 25.6 22.186 39.254 47.786 39.254h143.36v-104.107c0-8.534 6.827-23.893 17.067-23.893h110.933v-230.4c0-25.6-20.48-56.32-47.786-56.32h-223.573c-23.893 0-44.374 22.187-47.786 47.786-11.947 5.12-17.067 15.36-32.427 22.187v-13.654c0-42.666 35.84-87.040 80.214-87.040h223.573c44.373 0 78.507 44.373 78.507 87.040v256c0 0 0 0 0 0zM337.92 334.933v81.92l73.387-80.214h-73.387zM242.346 191.574c0 8.534-6.827 15.36-15.36 15.36h-64.853v63.147c0 8.534-6.827 15.36-15.36 15.36s-15.36-6.827-15.36-15.36v-80.214c0-8.534 6.827-15.36 15.36-15.36h80.214c8.534 1.707 15.36 8.534 15.36 17.067z" />
<glyph unicode="&#xe604;" d="M402.671 327.493l-83.234 83.234c-8.892 8.892-20.616 14.661-35.209 17.34v-135.783h135.782c-2.68 14.592-8.465 26.317-17.339 35.209zM275.695 258.15c-7.117 0-13.175 2.492-18.142 7.475-4.983 4.983-7.458 11.025-7.458 18.125v145.101h-145.118c-7.117 0-13.159-2.491-18.142-7.475-4.966-4.966-7.475-11.008-7.475-18.125v-358.502c0-7.117 2.492-13.159 7.475-18.125 4.984-4.983 11.025-7.475 18.142-7.475h290.219c7.117 0 13.159 2.491 18.125 7.475 4.983 4.983 7.475 11.025 7.475 18.125v213.401h-145.101zM151.364 64v82.586h-29.491v16.827h78.985v-16.827h-29.423v-82.586zM203.708 64l33.963 51.882-30.771 47.531h23.45l19.934-31.932 19.542 31.932h23.245l-30.925-48.281 33.98-51.132h-24.2l-22.033 34.389-22.119-34.389zM328.807 64v82.586h-29.491v16.827h78.985v-16.827h-29.423v-82.586z" />
<glyph unicode="&#xe605;" d="M405.334 327.475l-83.217 83.217c-8.892 8.892-20.616 14.66-35.209 17.339v-135.766h135.765c-2.68 14.592-8.465 26.334-17.339 35.209zM278.375 258.134c-7.117 0-13.159 2.491-18.142 7.475s-7.458 11.025-7.458 18.125v145.101h-145.101c-7.117 0-13.159-2.492-18.125-7.475-4.984-4.966-7.475-11.025-7.475-18.125v-358.451c0-7.117 2.492-13.159 7.475-18.125s11.025-7.475 18.125-7.475h290.185c7.099 0 13.142 2.491 18.125 7.475s7.475 11.025 7.475 18.125v213.351h-145.083zM147.268 145.476v-28.024h10.905c7.851 0 13.107 0.512 15.752 1.553 2.662 1.041 4.727 2.646 6.23 4.847 1.502 2.185 2.253 4.762 2.253 7.68 0 3.584-1.058 6.553-3.174 8.892s-4.779 3.806-8.022 4.386c-2.373 0.443-7.151 0.666-14.336 0.666h-9.608zM127.335 63.437v98.748h31.983c12.118 0 20.036-0.495 23.722-1.485 5.649-1.485 10.393-4.711 14.2-9.659 3.823-4.966 5.734-11.384 5.734-19.234 0-6.058-1.109-11.161-3.294-15.291s-4.983-7.373-8.397-9.728c-3.379-2.355-6.827-3.925-10.326-4.676-4.762-0.938-11.656-1.416-20.667-1.416h-13.022v-37.24h-19.934zM239.207 145.476v-65.399h14.899c5.563 0 9.575 0.307 12.049 0.938 3.226 0.802 5.922 2.168 8.055 4.113 2.134 1.928 3.874 5.103 5.223 9.523s2.014 10.445 2.014 18.091c0 7.629-0.683 13.483-2.014 17.579-1.349 4.079-3.226 7.271-5.666 9.558-2.423 2.304-5.495 3.84-9.233 4.642-2.765 0.632-8.226 0.955-16.35 0.955h-8.977zM219.273 162.185h36.438c8.209 0 14.472-0.632 18.79-1.877 5.786-1.707 10.752-4.745 14.882-9.096s7.271-9.694 9.421-16.009c2.151-6.315 3.243-14.080 3.243-23.33 0-8.123-1.024-15.138-3.038-21.009-2.474-7.185-6.007-12.988-10.582-17.442-3.464-3.379-8.123-5.99-14.012-7.885-4.403-1.399-10.291-2.099-17.647-2.099h-37.512v98.748zM319.096 63.437v98.748h67.687v-16.709h-47.752v-23.365h41.216v-16.709h-41.216v-41.967z" />
<glyph unicode="&#xe606;" d="M82.398 293.649c5.427-3.857 21.828-15.309 49.169-34.355 27.323-19.029 48.264-33.706 62.822-43.981 1.587-1.11 4.983-3.567 10.189-7.356 5.206-3.772 9.506-6.827 12.936-9.147 3.464-2.321 7.595-4.95 12.476-7.834 4.864-2.885 9.472-5.051 13.79-6.502 4.301-1.433 8.311-2.168 11.981-2.168h0.495c3.67 0 7.663 0.734 11.981 2.168 4.318 1.45 8.926 3.618 13.79 6.502 4.864 2.901 9.029 5.512 12.459 7.834 3.447 2.321 7.748 5.376 12.937 9.147 5.205 3.806 8.601 6.247 10.206 7.356 14.695 10.291 52.105 36.403 112.197 78.353 11.673 8.175 21.418 18.074 29.235 29.645 7.834 11.554 11.759 23.705 11.759 36.386 0 10.599-3.806 19.678-11.384 27.238-7.594 7.526-16.589 11.315-26.966 11.315h-352.938c-12.305 0-21.777-4.164-28.416-12.527s-9.95-18.791-9.95-31.334c0-10.12 4.403-21.077 13.193-32.887 8.789-11.827 18.142-21.112 28.041-27.853zM446.856 267.861c-52.429-35.669-92.228-63.385-119.399-83.166-9.096-6.759-16.503-12.015-22.169-15.786s-13.226-7.629-22.664-11.554c-9.438-3.959-18.227-5.905-26.368-5.905h-0.495c-8.141 0-16.93 1.945-26.368 5.905-9.438 3.925-16.982 7.783-22.665 11.554s-13.073 9.046-22.169 15.786c-21.589 15.906-61.303 43.639-119.159 83.166-9.114 6.093-17.186 13.090-24.218 20.958v-191.369c0-10.599 3.755-19.678 11.281-27.221s16.538-11.332 27.085-11.332h352.938c10.547 0 19.575 3.772 27.085 11.332s11.281 16.623 11.281 27.221v191.369c-6.895-7.697-14.882-14.695-23.995-20.958z" />
<glyph unicode="&#xe607;" d="M460.595 326.434c-11.281 11.281-24.781 16.896-40.499 16.896h-172.135v8.209c0 15.702-5.649 29.201-16.913 40.465-11.281 11.281-24.763 16.93-40.482 16.93h-81.989c-15.719 0-29.201-5.649-40.482-16.93-11.247-11.264-16.896-24.747-16.896-40.465v-245.947c0-15.719 5.649-29.201 16.896-40.482 11.281-11.264 24.781-16.896 40.482-16.896h311.518c15.702 0 29.201 5.632 40.499 16.913 11.264 11.264 16.896 24.764 16.896 40.482v180.344c0.017 15.719-5.632 29.218-16.896 40.482z" />
<glyph unicode="&#xe608;" d="M146.040 233.369c17.459 8.055 34.15 12.066 50.107 12.066h211.609v40.721c0 15.599-5.598 28.997-16.776 40.175-11.195 11.196-24.593 16.776-40.192 16.776h-138.376v8.158c0 15.616-5.598 28.997-16.793 40.192-11.179 11.196-24.593 16.793-40.175 16.793h-81.391c-15.616 0-29.014-5.598-40.192-16.793-11.213-11.195-16.794-24.593-16.794-40.192v-244.19c0-0.683 0.034-1.741 0.119-3.175s0.137-2.491 0.137-3.175l1.28 1.519 85.709 100.728c10.343 12.202 24.252 22.34 41.728 30.395zM488.26 209.562c-4.488 2.219-9.608 3.311-15.394 3.311h-276.736c-11.178 0-23.347-3.003-36.488-9.011-13.142-6.041-23.364-13.346-30.651-22.016l-85.47-100.728c-5.257-5.939-7.885-11.52-7.885-16.776 0-5.086 2.27-8.738 6.758-10.94s9.626-3.294 15.394-3.294h276.719c11.195 0 23.365 3.003 36.505 9.011 13.159 6.024 23.365 13.363 30.651 22.016l85.47 100.728c5.24 5.939 7.885 11.537 7.885 16.793 0 5.069-2.253 8.721-6.759 10.906z" />
<glyph unicode="&#xe609;" d="M222.123 187.665c0.171-1.775 1.109-3.345 2.799-4.676 1.707-1.349 3.789-2.014 6.298-2.014h49.442c2.491 0 4.625 0.666 6.417 2.014 1.775 1.331 2.663 2.885 2.663 4.676l4.557 165.837c0 2.133-0.887 3.738-2.68 4.813-1.775 1.434-3.925 2.134-6.417 2.134h-58.811c-2.492 0-4.625-0.717-6.4-2.134-1.792-1.058-2.679-2.68-2.679-4.813l4.813-165.837zM221.577 95.795c0-2.509 0.802-4.591 2.423-6.281 1.605-1.707 3.55-2.526 5.871-2.526h51.319c2.321 0 4.352 0.887 6.144 2.663 1.775 1.775 2.663 3.823 2.663 6.144v50.722c0 2.304-0.887 4.352-2.663 6.144-1.792 1.775-3.84 2.663-6.144 2.663h-51.32c-2.321 0-4.284-0.853-5.871-2.526-1.621-1.707-2.423-3.789-2.423-6.281v-50.722zM78.063 326.656c18.347 31.437 43.247 56.303 74.701 74.649 31.454 18.329 65.792 27.495 103.031 27.495s71.577-9.165 103.048-27.495c31.454-18.346 56.337-43.213 74.683-74.649 18.363-31.42 27.546-65.741 27.546-102.946s-9.182-71.526-27.529-102.946c-18.363-31.419-43.247-56.303-74.701-74.649-31.454-18.329-65.792-27.495-103.031-27.495s-71.577 9.165-103.031 27.495c-31.454 18.346-56.337 43.23-74.701 74.649s-27.529 65.741-27.529 102.946c-0.017 37.206 9.165 71.526 27.512 102.946z" />
<glyph unicode="&#xe60a;" d="M389.99 254.874l-148.787-145.066c-3.464-3.379-7.663-5.086-12.595-5.086-4.744 0-8.857 1.707-12.322 5.086l-99.192 96.717c-3.277 3.209-4.933 7.202-4.933 12.032 0 4.983 1.638 9.079 4.933 12.305l24.934 24.030c3.464 3.397 7.577 5.086 12.339 5.086s8.875-1.689 12.339-5.086l61.901-60.382 111.803 108.731c3.464 3.397 7.577 5.086 12.322 5.086s8.858-1.69 12.339-5.086l24.918-24.030c3.294-3.209 4.933-7.305 4.933-12.288 0-4.847-1.656-8.841-4.933-12.049zM435.746 326.605c-18.825 31.437-44.339 56.32-76.578 74.666s-67.43 27.529-105.608 27.529c-38.195 0-73.387-9.182-105.625-27.512-32.239-18.364-57.77-43.247-76.578-74.683s-28.228-65.775-28.228-103.014c0-37.206 9.421-71.543 28.228-102.981s44.322-56.32 76.578-74.666c32.239-18.346 67.447-27.529 105.608-27.529s73.387 9.182 105.625 27.529c32.239 18.346 57.77 43.23 76.578 74.666s28.211 65.775 28.211 102.981c0.017 37.24-9.387 71.577-28.211 103.014z" />
<glyph unicode="&#xe60b;" d="M361.147 252.126c-2.253-6.622-4.762-12.049-7.543-16.264s-6.759-8.534-11.964-12.903c-5.188-4.386-9.318-7.526-12.373-9.421-3.038-1.861-7.441-4.438-13.159-7.663-5.922-3.397-10.803-7.834-14.643-13.312-3.874-5.462-5.786-9.899-5.786-13.295 0-2.509-0.802-4.574-2.423-6.195-1.604-1.622-3.67-2.423-6.178-2.423h-51.626c-2.509 0-4.574 0.785-6.195 2.423-1.621 1.622-2.423 3.67-2.423 6.195v9.677c0 12.015 4.71 23.262 14.114 33.758 9.421 10.479 19.781 18.244 31.062 23.262 8.584 3.942 14.695 7.97 18.279 12.101s5.376 9.591 5.376 16.401c0 5.922-3.362 11.213-10.087 15.872-6.741 4.659-14.387 6.998-22.989 6.998-9.335 0-17.049-2.15-23.125-6.451-5.922-4.301-13.619-12.544-23.125-24.746-1.605-2.15-3.857-3.226-6.725-3.226-2.133 0-3.857 0.529-5.103 1.605l-35.499 26.88c-4.113 3.226-4.847 6.997-2.15 11.298 22.954 38.195 56.201 57.275 99.754 57.275 15.599 0 30.839-3.669 45.721-11.025s27.306-17.75 37.257-31.198c9.95-13.449 14.933-28.058 14.933-43.827-0.017-7.902-1.144-15.155-3.379-21.794zM295.663 93.201c0-2.491-0.802-4.574-2.423-6.178-1.604-1.622-3.67-2.423-6.178-2.423h-51.626c-2.509 0-4.574 0.802-6.195 2.423-1.621 1.604-2.406 3.67-2.406 6.178v51.644c0 2.509 0.785 4.574 2.406 6.178s3.686 2.423 6.195 2.423h51.626c2.509 0 4.574-0.819 6.178-2.423 1.622-1.604 2.423-3.67 2.423-6.178v-51.644zM440.064 325.957c-18.483 31.642-43.52 56.696-75.161 75.161-31.642 18.432-66.185 27.682-103.646 27.682-37.478 0-72.038-9.25-103.68-27.699-31.642-18.466-56.678-43.52-75.162-75.161-18.466-31.642-27.699-66.202-27.699-103.68 0-37.445 9.25-72.005 27.699-103.646 18.483-31.642 43.52-56.695 75.162-75.161s66.202-27.699 103.68-27.699c37.462 0 72.022 9.233 103.663 27.699s56.678 43.52 75.161 75.161c18.466 31.642 27.682 66.202 27.682 103.646-0.017 37.495-9.233 72.055-27.699 103.697z" />
<glyph unicode="&#xe60c;" d="M448.837 385.741c-24.695 23.995-54.425 35.994-89.173 35.994-34.765 0-64.478-11.998-89.173-35.994-24.696-24.013-37.052-52.889-37.052-86.647v-52.583h-189.338c-7.51 0-13.892-2.543-19.149-7.663-5.256-5.086-7.885-11.298-7.885-18.619v-157.696c0-7.305 2.628-13.517 7.885-18.62 5.256-5.086 11.657-7.646 19.149-7.646h270.473c7.51 0 13.909 2.56 19.166 7.663s7.902 11.315 7.902 18.62v157.696c0 7.304-2.646 13.517-7.902 18.619-5.257 5.12-11.656 7.663-19.166 7.663h-27.034v52.566c0 19.337 7.048 35.874 21.128 49.545 14.080 13.688 31.079 20.548 50.995 20.548s36.915-6.844 51.012-20.548c14.063-13.671 21.128-30.208 21.128-49.545v-70.093c0-4.744 1.775-8.858 5.342-12.322s7.8-5.205 12.68-5.205h18.039c4.881 0 9.113 1.741 12.68 5.205 3.55 3.481 5.342 7.577 5.342 12.322v70.093c0 33.758-12.339 62.635-37.051 86.647z" />
<glyph unicode="&#xe60d;" d="M335.497 114.808c-21.572-21.572-47.514-32.358-77.858-32.358-30.31 0-56.286 10.786-77.858 32.358s-32.341 47.514-32.341 77.858c0 30.327 10.769 56.286 32.341 77.841 21.572 21.572 47.531 32.358 77.858 32.358 30.344 0 56.286-10.786 77.858-32.358 21.572-21.555 32.358-47.514 32.358-77.841 0-30.361-10.803-56.303-32.358-77.858zM475.341 347.375c-12.305 12.305-27.153 18.449-44.51 18.449h-55.108l-12.527 33.45c-3.123 8.038-8.824 14.951-17.101 20.787-8.312 5.82-16.793 8.738-25.498 8.738h-125.935c-8.687 0-17.186-2.918-25.464-8.738-8.261-5.837-13.977-12.749-17.084-20.77l-12.544-33.468h-55.108c-17.391 0-32.222-6.144-44.51-18.449-12.305-12.288-18.449-27.136-18.449-44.527v-220.399c0-17.374 6.144-32.222 18.449-44.51 12.288-12.322 27.136-18.466 44.51-18.466h346.351c17.374 0 32.222 6.144 44.51 18.466 12.288 12.305 18.449 27.136 18.449 44.51v220.399c0.017 17.391-6.144 32.239-18.432 44.527zM257.656 263.493c-19.524 0-36.215-6.929-50.073-20.77-13.841-13.858-20.787-30.549-20.787-50.073s6.946-36.199 20.787-50.057c13.858-13.858 30.566-20.787 50.073-20.787s36.199 6.929 50.056 20.787c13.858 13.858 20.787 30.533 20.787 50.057s-6.946 36.215-20.787 50.073c-13.875 13.841-30.567 20.77-50.057 20.77z" />
<glyph unicode="&#xe60e;" d="M544.558 348.198l-78.188 78.189c-8.357 8.353-19.382 13.786-33.084 16.29v-127.558h127.558c-2.504 13.705-7.936 24.731-16.286 33.080zM425.276 283.045c-6.688 0-12.368 2.339-17.043 7.014-4.681 4.674-7.017 10.356-7.017 17.040v136.329h-136.329c-6.68 0-12.362-2.339-17.040-7.014s-7.017-10.356-7.017-17.040v-166.091c7.095 4.902 14.796 9.153 23.141 12.705 15.374 6.537 31.481 9.805 48.317 9.805 16.844 0 32.95-3.269 48.317-9.805 15.37-6.537 28.623-15.37 39.75-26.501 11.134-11.131 19.964-24.38 26.505-39.75 6.534-15.374 9.801-31.478 9.801-48.317s-3.269-32.947-9.801-48.314c-6.537-15.37-15.37-28.616-26.505-39.747-1.673-1.676-3.412-3.279-5.18-4.846h142.364c6.681 0 12.355 2.336 17.033 7.014 4.678 4.675 7.017 10.356 7.017 17.040v200.479h-136.315zM161.154 18.993c0-5.481 2.002-10.229 6.014-14.238 4.001-4.009 8.75-6.010 14.234-6.010 5.695 0 10.44 2.002 14.231 6.010l54.255 54.093c18.874-13.074 39.912-19.618 63.117-19.618 15.079 0 29.496 2.928 43.26 8.781 13.761 5.853 25.632 13.764 35.591 23.728 9.966 9.97 17.878 21.83 23.728 35.587 5.856 13.764 8.781 28.181 8.781 43.26 0 15.083-2.925 29.5-8.781 43.264-5.849 13.761-13.761 25.628-23.728 35.588-9.963 9.966-21.83 17.878-35.591 23.731s-28.181 8.778-43.26 8.778-29.503-2.924-43.264-8.778c-13.761-5.853-25.625-13.761-35.588-23.731-9.963-9.963-17.875-21.826-23.724-35.588s-8.785-28.181-8.785-43.264c0-23.198 6.544-44.232 19.621-63.11l-54.255-54.258c-3.906-3.896-5.86-8.641-5.857-14.228zM242.137 150.591c0 19.509 6.933 36.194 20.799 50.060 13.873 13.866 30.558 20.806 50.067 20.806s36.197-6.94 50.060-20.806c13.87-13.866 20.803-30.551 20.803-50.060s-6.933-36.194-20.803-50.060c-13.866-13.866-30.551-20.799-50.060-20.799s-36.194 6.933-50.067 20.799c-13.866 13.866-20.799 30.551-20.799 50.060z" horiz-adv-x="758" />
<glyph unicode="&#xe60f;" d="M439.705 326.639c-18.825 31.437-44.339 56.32-76.578 74.666s-67.43 27.512-105.608 27.512c-38.195 0-73.387-9.182-105.625-27.512-32.239-18.346-57.77-43.23-76.578-74.666s-28.228-65.775-28.228-103.014c0-37.206 9.421-71.543 28.228-102.981s44.322-56.32 76.578-74.666c32.239-18.346 67.447-27.529 105.608-27.529s73.387 9.182 105.625 27.529c32.239 18.346 57.77 43.23 76.578 74.666s28.211 65.775 28.211 102.981c0 37.24-9.387 71.56-28.211 103.014zM363.247 188.45l-208.452-0.137c-9.387 0-17.066 7.68-17.066 17.067l-0.017 36.403c0 9.387 7.68 17.066 17.066 17.066l208.435 0.137c9.387 0 17.067-7.68 17.084-17.066l0.017-36.403c0-9.37-7.68-17.067-17.067-17.067z" />
<glyph unicode="&#xe610;" d="M568.741 334.143c-19.621 33.616-46.238 60.233-79.855 79.854-33.623 19.621-70.33 29.43-110.143 29.43-39.81 0-76.526-9.809-110.143-29.43-33.62-19.618-60.237-46.234-79.858-79.854-19.625-33.62-29.433-70.337-29.433-110.143 0-39.81 9.812-76.519 29.429-110.143 19.621-33.613 46.238-60.233 79.858-79.855s70.334-29.43 110.143-29.43c39.81 0 76.526 9.808 110.143 29.43 33.613 19.618 60.23 46.238 79.855 79.855 19.617 33.62 29.426 70.337 29.426 110.143 0 39.81-9.808 76.526-29.423 110.143zM378.74 68.573c-28.192 0-54.192 6.95-78 20.858-23.808 13.904-42.664 32.768-56.569 56.572-13.908 23.808-20.858 49.808-20.858 78s6.954 54.191 20.858 78c13.901 23.808 32.761 42.668 56.569 56.572s49.808 20.855 78 20.855v-310.858z" horiz-adv-x="758" />
<glyph unicode="&#xe611;" d="M616.452 205.716h-475.427c-4.955 0-9.24-1.813-12.859-5.432-3.619-3.615-5.428-7.908-5.428-12.856v-36.573c0-4.952 1.809-9.24 5.428-12.856 3.623-3.619 7.908-5.432 12.859-5.432h475.427c4.952 0 9.24 1.813 12.86 5.432 3.619 3.615 5.428 7.904 5.428 12.856v36.573c0 4.948-1.809 9.24-5.428 12.856-3.619 3.623-7.908 5.432-12.86 5.432zM616.452 96h-475.427c-4.955 0-9.24-1.81-12.859-5.428s-5.428-7.904-5.428-12.856v-36.573c0-4.952 1.809-9.24 5.428-12.863 3.623-3.612 7.908-5.425 12.859-5.425h475.427c4.952 0 9.24 1.813 12.86 5.425 3.619 3.623 5.428 7.911 5.428 12.863v36.573c0 4.952-1.809 9.237-5.428 12.856s-7.908 5.428-12.86 5.428zM629.311 419.717c-3.619 3.615-7.908 5.429-12.86 5.429h-475.427c-4.955 0-9.24-1.813-12.859-5.429-3.619-3.619-5.428-7.908-5.428-12.859v-36.573c0-4.951 1.809-9.237 5.428-12.856 3.623-3.619 7.908-5.428 12.859-5.428h475.427c4.952 0 9.24 1.81 12.86 5.428s5.428 7.905 5.428 12.856v36.573c0 4.952-1.809 9.237-5.428 12.859zM616.452 315.427h-475.427c-4.955 0-9.24-1.81-12.859-5.429s-5.428-7.905-5.428-12.856v-36.573c0-4.951 1.809-9.24 5.428-12.856 3.623-3.619 7.908-5.432 12.859-5.432h475.427c4.952 0 9.24 1.813 12.86 5.432 3.619 3.615 5.428 7.905 5.428 12.856v36.573c0 4.955-1.809 9.237-5.428 12.856s-7.908 5.428-12.86 5.428z" horiz-adv-x="758" />
<glyph unicode="&#xe612;" d="M616.452 96h-475.427c-4.955 0-9.24-1.81-12.859-5.428s-5.428-7.904-5.428-12.856v-36.573c0-4.952 1.809-9.24 5.428-12.863 3.623-3.612 7.908-5.425 12.859-5.425h475.427c4.952 0 9.24 1.813 12.86 5.425 3.619 3.623 5.428 7.911 5.428 12.863v36.573c0 4.952-1.809 9.237-5.428 12.856s-7.908 5.428-12.86 5.428zM616.452 205.716h-365.712c-4.955 0-9.24-1.813-12.859-5.432-3.619-3.615-5.429-7.908-5.429-12.856v-36.573c0-4.952 1.81-9.24 5.428-12.856 3.623-3.619 7.908-5.432 12.859-5.432h365.712c4.952 0 9.24 1.813 12.86 5.432 3.619 3.615 5.428 7.904 5.428 12.856v36.573c0 4.948-1.809 9.24-5.428 12.856-3.619 3.623-7.908 5.432-12.86 5.432zM616.452 315.427h-438.854c-4.955 0-9.24-1.81-12.859-5.429s-5.429-7.905-5.429-12.856v-36.573c0-4.951 1.81-9.24 5.428-12.856 3.623-3.619 7.905-5.432 12.859-5.432h438.854c4.952 0 9.24 1.813 12.86 5.432 3.619 3.615 5.428 7.905 5.428 12.856v36.573c0 4.955-1.809 9.237-5.428 12.856s-7.908 5.428-12.86 5.428zM629.311 419.717c-3.619 3.615-7.908 5.429-12.86 5.429h-329.139c-4.955 0-9.24-1.813-12.86-5.429-3.619-3.619-5.428-7.908-5.428-12.859v-36.573c0-4.951 1.81-9.237 5.428-12.856 3.623-3.619 7.908-5.428 12.86-5.428h329.139c4.952 0 9.24 1.81 12.86 5.428s5.428 7.905 5.428 12.856v36.573c0 4.952-1.809 9.237-5.428 12.859z" horiz-adv-x="758" />
<glyph unicode="&#xe613;" d="M141.024 242.281h438.861c4.952 0 9.237 1.813 12.856 5.432 3.615 3.615 5.425 7.905 5.425 12.856v36.573c0 4.955-1.809 9.237-5.425 12.856-3.619 3.619-7.904 5.428-12.856 5.428h-438.861c-4.955 0-9.24-1.81-12.859-5.428s-5.428-7.905-5.428-12.856v-36.573c0-4.951 1.809-9.24 5.428-12.856 3.623-3.619 7.908-5.432 12.859-5.432zM141.024 352h329.139c4.952 0 9.24 1.81 12.863 5.428 3.615 3.619 5.425 7.904 5.425 12.856v36.573c0 4.952-1.81 9.237-5.425 12.86-3.623 3.615-7.911 5.428-12.863 5.428h-329.139c-4.955 0-9.24-1.813-12.859-5.428-3.619-3.619-5.428-7.908-5.428-12.86v-36.573c0-4.952 1.809-9.237 5.428-12.856 3.623-3.619 7.908-5.428 12.859-5.428zM629.311 90.572c-3.619 3.619-7.908 5.428-12.86 5.428h-475.427c-4.955 0-9.24-1.81-12.859-5.428s-5.428-7.904-5.428-12.856v-36.573c0-4.952 1.809-9.24 5.428-12.863 3.623-3.612 7.908-5.425 12.859-5.425h475.427c4.952 0 9.24 1.813 12.86 5.425 3.619 3.623 5.428 7.911 5.428 12.863v36.573c0 4.952-1.809 9.237-5.428 12.856zM141.024 132.57h365.716c4.952 0 9.24 1.813 12.856 5.432 3.619 3.615 5.432 7.904 5.432 12.856v36.57c0 4.948-1.813 9.24-5.432 12.856-3.615 3.619-7.904 5.432-12.856 5.432h-365.716c-4.955 0-9.24-1.813-12.859-5.432-3.619-3.615-5.428-7.908-5.428-12.856v-36.573c0-4.952 1.809-9.24 5.428-12.856 3.623-3.619 7.908-5.428 12.859-5.428z" horiz-adv-x="758" />
<glyph unicode="&#xe615;" d="M207.024 307.716c-8.189 0-15.146-2.855-20.858-8.571s-8.571-12.572-8.571-20.571v-122.862c0-8.185 2.858-15.135 8.571-20.851s12.666-8.57 20.855-8.57c8.192 0 15.097 2.854 20.715 8.57 5.621 5.716 8.43 12.666 8.43 20.851v122.863c0 8.002-2.858 14.858-8.571 20.571s-12.572 8.571-20.571 8.571zM247.601 111.998c0-8.76 3.048-16.188 9.142-22.282 6.095-6.091 13.522-9.139 22.286-9.139h21.143l0.288-64.856c0-8.192 2.858-15.139 8.57-20.855s12.572-8.57 20.571-8.57c8.192 0 15.142 2.854 20.858 8.57s8.57 12.663 8.57 20.855v64.856h39.428v-64.856c0-8.192 2.854-15.139 8.567-20.855 5.719-5.716 12.67-8.57 20.862-8.57 8.185 0 15.135 2.854 20.851 8.57 5.712 5.716 8.563 12.663 8.563 20.855v64.856h21.43c8.567 0 15.904 3.044 21.998 9.139s9.142 13.522 9.142 22.283v190.288h-262.274v-190.288zM443.596 417.999l20.28 37.428c1.336 2.476 0.856 4.38-1.428 5.712-2.476 1.143-4.38 0.572-5.712-1.715l-20.571-37.713c-18.096 7.999-37.236 12.001-57.428 12.001-20.189 0-39.333-4.002-57.428-12.001l-20.571 37.713c-1.329 2.286-3.237 2.858-5.712 1.715-2.286-1.332-2.76-3.237-1.428-5.712l20.287-37.428c-20.575-10.475-36.952-25.095-49.145-43.856-12.19-18.762-18.285-39.287-18.285-61.57h264.287c0 22.283-6.095 42.808-18.288 61.57s-28.472 33.381-48.858 43.856zM326.309 363.572c-2.188-2.192-4.808-3.286-7.856-3.286s-5.618 1.094-7.715 3.286c-2.094 2.189-3.142 4.808-3.142 7.856s1.048 5.667 3.142 7.859c2.094 2.192 4.668 3.286 7.715 3.286 3.044 0 5.663-1.094 7.856-3.286s3.286-4.812 3.286-7.859-1.094-5.663-3.286-7.856zM446.741 363.572c-2.097-2.192-4.671-3.286-7.719-3.286s-5.663 1.094-7.852 3.286c-2.192 2.189-3.286 4.808-3.286 7.856s1.094 5.667 3.286 7.859c2.188 2.192 4.805 3.286 7.852 3.286s5.622-1.094 7.719-3.286c2.090-2.192 3.142-4.812 3.142-7.859s-1.048-5.663-3.142-7.856zM571.308 299.288c-5.712 5.618-12.663 8.427-20.855 8.427-7.999 0-14.855-2.809-20.567-8.427-5.716-5.621-8.574-12.526-8.574-20.715v-122.862c0-8.185 2.858-15.135 8.574-20.851 5.712-5.716 12.568-8.57 20.567-8.57 8.192 0 15.143 2.854 20.855 8.57 5.716 5.716 8.574 12.666 8.574 20.851v122.863c0 8.189-2.858 15.094-8.574 20.715z" horiz-adv-x="758" />
<glyph unicode="&#xe616;" d="M346.74 224l112.289 112.286c1.904 1.904 2.854 4.096 2.854 6.572s-0.95 4.667-2.854 6.569l-14.287 14.287c-1.904 1.904-4.096 2.858-6.569 2.858-2.476 0-4.668-0.954-6.572-2.858l-133.144-133.141c-1.904-1.904-2.854-4.096-2.854-6.572s0.95-4.667 2.854-6.572l133.141-133.141c1.904-1.908 4.096-2.858 6.572-2.858 2.473 0 4.664 0.95 6.568 2.858l14.287 14.28c1.904 1.904 2.854 4.096 2.854 6.575 0 2.473-0.95 4.664-2.854 6.569l-112.286 112.29z" horiz-adv-x="758" />
<glyph unicode="&#xe617;" d="M518.456 290.002l-14.284 14.284c-1.904 1.907-4.096 2.858-6.575 2.858-2.473 0-4.664-0.951-6.569-2.858l-112.289-112.286-112.286 112.283c-1.904 1.907-4.096 2.858-6.572 2.858s-4.667-0.95-6.572-2.858l-14.284-14.284c-1.907-1.904-2.858-4.096-2.858-6.572s0.954-4.668 2.858-6.572l133.141-133.144c1.904-1.904 4.096-2.854 6.572-2.854s4.664 0.95 6.568 2.854l133.148 133.144c1.904 1.904 2.851 4.096 2.851 6.572s-0.947 4.668-2.851 6.576z" horiz-adv-x="758" />
<glyph unicode="&#xe618;" d="M459.029 230.576l-133.144 133.141c-1.904 1.904-4.096 2.858-6.572 2.858s-4.668-0.954-6.572-2.858l-14.284-14.287c-1.908-1.904-2.858-4.092-2.858-6.572s0.95-4.667 2.858-6.572l112.286-112.286-112.286-112.289c-1.908-1.904-2.858-4.096-2.858-6.568 0-2.479 0.95-4.671 2.858-6.575l14.284-14.28c1.904-1.908 4.096-2.854 6.572-2.854s4.668 0.95 6.572 2.854l133.141 133.141c1.904 1.904 2.854 4.096 2.854 6.572s-0.947 4.667-2.851 6.576z" horiz-adv-x="758" />
<glyph unicode="&#xe619;" d="M532.599 150.574c-13.144 18.856-19.712 40.101-19.712 63.712 0 21.525 6.197 41.244 18.569 59.147 6.667 9.714 17.527 20.95 32.575 33.715-9.907 12.186-19.81 21.711-29.717 28.57-17.906 12.379-38.193 18.569-60.858 18.569-13.522 0-30.001-3.237-49.425-9.717-18.667-6.477-32.288-9.718-40.858-9.718-6.477 0-19.618 2.854-39.428 8.57-20 5.716-36.857 8.571-50.572 8.571-32.761 0-59.81-13.716-81.142-41.142-21.525-27.81-32.287-63.428-32.287-106.857 0-46.094 14.003-93.998 42.001-143.714 28.377-49.331 57.046-74.002 85.998-74.002 9.714 0 22.286 3.24 37.712 9.717 15.43 6.281 28.952 9.426 40.574 9.426 12.379 0 26.761-3.048 43.142-9.142 17.331-6.088 30.668-9.135 39.999-9.135 24.38 0 48.857 18.667 73.427 56.001 15.998 23.808 27.715 47.616 35.142 71.428-16.952 5.144-31.996 17.149-45.14 36.002zM435.452 371.428c12 12 20.858 25.144 26.575 39.428 5.52 14.287 8.279 27.241 8.279 38.86 0 0.761-0.042 1.715-0.144 2.858-0.087 1.143-0.137 2.094-0.137 2.855-0.193 0.572-0.432 1.62-0.716 3.142s-0.522 2.57-0.716 3.142c-33.522-7.813-57.33-21.908-71.428-42.289-14.284-20.571-21.714-45.046-22.286-73.427 12.762 1.143 22.665 2.76 29.714 4.857 10.289 3.43 20.567 10.289 30.857 20.575z" horiz-adv-x="758" />
<glyph unicode="&#xe61a;" d="M579.882 315.427h-402.281c-4.955 0-9.24-1.81-12.859-5.429s-5.429-7.905-5.429-12.856v-274.284c0-4.952 1.81-9.24 5.428-12.856 3.619-3.619 7.905-5.432 12.859-5.432h402.281c4.952 0 9.237 1.813 12.856 5.432 3.615 3.615 5.425 7.904 5.425 12.856v274.284c0 4.955-1.803 9.237-5.425 12.856-3.615 3.619-7.901 5.428-12.856 5.428zM428.166 229.429c-3.619-3.619-7.904-5.429-12.856-5.429h-73.142c-4.952 0-9.237 1.81-12.856 5.428s-5.428 7.905-5.428 12.859c0 4.952 1.81 9.237 5.428 12.856s7.904 5.429 12.856 5.429h73.149c4.948 0 9.233-1.81 12.856-5.428 3.615-3.619 5.425-7.905 5.425-12.856 0-4.955-1.813-9.24-5.432-12.859zM611.027 437.998c-3.619 3.619-7.904 5.429-12.856 5.429h-438.858c-4.952 0-9.237-1.81-12.856-5.429s-5.428-7.904-5.428-12.856v-73.142c0-4.952 1.81-9.237 5.428-12.856s7.905-5.428 12.856-5.428h438.851c4.952 0 9.24 1.81 12.863 5.428 3.615 3.619 5.425 7.904 5.425 12.856v73.142c0 4.955-1.806 9.237-5.425 12.856z" horiz-adv-x="758" />
<glyph unicode="&#xe61b;" d="M518.456 171.142l-133.148 133.141c-1.904 1.904-4.092 2.858-6.568 2.858s-4.668-0.954-6.572-2.858l-133.141-133.141c-1.907-1.908-2.858-4.096-2.858-6.572s0.954-4.668 2.858-6.572l14.284-14.284c1.904-1.904 4.096-2.854 6.572-2.854s4.668 0.95 6.572 2.854l112.286 112.286 112.289-112.289c1.904-1.904 4.096-2.851 6.568-2.851 2.479 0 4.671 0.95 6.575 2.851l14.283 14.287c1.904 1.904 2.851 4.096 2.851 6.572s-0.947 4.668-2.851 6.572z" horiz-adv-x="758" />
<glyph unicode="&#xe625;" d="M581.453 157.858c-2.574 9.808-8.237 17.19-17.001 22.142l-76 44 76 44c8.764 4.952 14.431 12.33 17.001 22.142 2.571 9.809 1.381 19.095-3.573 27.855l-18.284 31.429c-4.952 8.763-12.33 14.43-22.142 17.001-9.808 2.567-19.088 1.378-27.855-3.577l-76-43.71v87.714c0 9.907-3.623 18.478-10.861 25.716s-15.809 10.857-25.712 10.857h-36.57c-9.907 0-18.478-3.623-25.716-10.857-7.238-7.238-10.857-15.809-10.857-25.716v-87.714l-76 43.713c-8.763 4.955-18.050 6.147-27.858 3.577-9.809-2.574-17.19-8.238-22.142-17.001l-18.285-31.428c-4.955-8.76-6.144-18.046-3.573-27.855 2.574-9.808 8.238-17.19 17.001-22.142l76.001-44.004-76-44c-8.763-4.952-14.43-12.33-17.001-22.142-2.571-9.808-1.378-19.088 3.573-27.851l18.285-31.428c4.952-8.767 12.33-14.43 22.142-17.005 9.812-2.567 19.095-1.378 27.858 3.577l76.001 43.713v-87.717c0-9.9 3.619-18.478 10.857-25.712 7.238-7.238 15.813-10.857 25.716-10.857h36.57c9.904 0 18.478 3.619 25.712 10.857 7.241 7.235 10.861 15.813 10.861 25.712v87.714l76-43.713c8.767-4.955 18.046-6.147 27.855-3.577 9.808 2.574 17.191 8.238 22.142 17.005l18.284 31.428c4.955 8.764 6.144 18.046 3.573 27.855z" horiz-adv-x="758" />
<glyph unicode="&#xe626;" d="M580.741 309.714c-11.618 27.139-27.192 50.523-46.718 70.141-19.515 19.617-42.857 35.24-70 46.858-27.136 11.618-55.57 17.429-85.279 17.429-29.714 0-58.144-5.815-85.286-17.429-27.143-11.618-50.477-27.237-70-46.858-19.523-19.618-35.096-43.001-46.714-70.141-11.618-27.143-17.429-55.667-17.429-85.57s5.811-58.473 17.429-85.711c11.621-27.241 27.192-50.663 46.714-70.288 19.523-19.618 42.857-35.24 70-46.851 27.143-11.622 55.573-17.436 85.286-17.436s58.144 5.815 85.279 17.436c27.143 11.615 50.485 27.234 70 46.851 19.526 19.625 35.1 43.046 46.718 70.288 11.618 27.238 17.425 55.808 17.425 85.711-0.004 29.903-5.808 58.428-17.426 85.57zM248.741 138.721c-16.952 26.087-25.428 54.57-25.424 85.427 0 28.188 6.954 54.283 20.858 78.284 13.901 24.001 32.761 42.952 56.569 56.86 23.808 13.904 49.808 20.855 78 20.855 31.432 0 59.995-8.669 85.714-26l-215.717-215.426zM521.875 163.426c-8.192-19.334-19.231-35.952-33.139-49.857s-30.429-25-49.573-33.28c-19.144-8.286-39.287-12.432-60.426-12.432-30.474 0-58.761 8.473-84.855 25.432l215.43 215.142c16.577-25.523 24.856-53.62 24.856-84.284-0.004-21.147-4.1-41.385-12.292-60.721z" horiz-adv-x="758" />
<glyph unicode="&#xe627;" d="M609.266 343.429c-3.995 5.334-9.616 9.427-16.865 12.285 0.386-6.67-0.087-12.099-1.424-16.293l-85.711-281.997c-1.529-4.952-4.864-8.904-10.002-11.856-5.144-2.953-10.475-4.429-15.998-4.429h-263.712c-22.858 0-36.57 6.659-41.142 20-1.904 5.144-1.81 9.237 0.287 12.284 2.094 2.861 5.713 4.289 10.857 4.289h248.285c17.713 0 29.952 3.289 36.713 9.861 6.768 6.572 13.575 21.192 20.431 43.856l78.284 258.858c4.187 14.094 2.476 26.476-5.144 37.141s-18.477 15.998-32.572 15.998h-217.424c-2.476 0-7.333-0.856-14.571-2.571l0.284 0.859c-5.334 1.139-9.858 1.662-13.572 1.571-3.714-0.098-7.144-1.192-10.286-3.289s-5.667-4.331-7.572-6.712c-1.904-2.381-3.763-5.428-5.572-9.143-1.806-3.717-3.332-7.147-4.57-10.289s-2.668-6.477-4.286-10.005c-1.62-3.524-3.188-6.428-4.713-8.711-1.143-1.525-2.76-3.524-4.857-6-2.094-2.476-3.809-4.667-5.141-6.572s-2.192-3.619-2.571-5.144c-0.379-1.712-0.19-4.236 0.571-7.571 0.761-3.332 1.048-5.758 0.856-7.284-0.761-7.238-3.381-16.426-7.856-27.571s-8.525-19.193-12.144-24.144c-0.761-0.95-2.855-3.093-6.285-6.428-3.429-3.332-5.524-6.235-6.285-8.711-0.761-0.95-0.81-3.619-0.144-7.999 0.667-4.384 0.909-7.428 0.715-9.143-0.764-6.477-3.142-15.048-7.143-25.715-4.001-10.665-7.999-19.428-12-26.284-0.571-1.143-2.189-3.331-4.857-6.572-2.665-3.24-4.286-5.906-4.857-7.999-0.379-1.522-0.329-4.19 0.144-7.999s0.428-6.663-0.144-8.567c-1.522-7.235-4.38-15.952-8.571-26.144-4.19-10.188-8.476-18.909-12.859-26.14-1.139-1.908-2.714-4.149-4.713-6.716-1.999-2.57-3.57-4.808-4.713-6.712-1.143-1.908-1.904-3.906-2.286-6-0.19-1.143 0.098-3.002 0.859-5.576 0.761-2.567 1.048-4.615 0.856-6.144-0.193-2.665-0.571-6.193-1.143-10.573s-0.859-6.947-0.859-7.708c-4.19-11.433-4.001-23.527 0.571-36.293 5.334-14.851 14.809-27.382 28.427-37.572 13.62-10.188 27.76-15.279 42.429-15.279h263.715c12.375 0 24.043 4.145 34.995 12.425 10.952 8.286 18.239 18.523 21.855 30.72l78.567 258.851c4.194 13.716 2.483 26-5.141 36.857zM305.271 342.857l6 18.288c0.761 2.476 2.332 4.619 4.713 6.428 2.381 1.806 4.812 2.715 7.287 2.715h173.715c2.665 0 4.57-0.905 5.712-2.715s1.336-3.952 0.575-6.428l-6.003-18.288c-0.764-2.476-2.332-4.615-4.716-6.428-2.385-1.806-4.808-2.711-7.284-2.711h-173.712c-2.668 0-4.573 0.902-5.716 2.711-1.143 1.813-1.332 3.952-0.572 6.428zM281.558 269.716l6 18.284c0.761 2.476 2.332 4.619 4.713 6.428s4.808 2.714 7.287 2.714h173.712c2.668 0 4.573-0.901 5.716-2.714 1.139-1.81 1.332-3.952 0.568-6.428l-6-18.284c-0.761-2.476-2.332-4.619-4.713-6.428-2.385-1.81-4.808-2.715-7.287-2.715h-173.712c-2.665 0-4.57 0.902-5.712 2.715-1.143 1.809-1.332 3.952-0.572 6.428z" horiz-adv-x="758" />
<glyph unicode="&#xe628;" d="M556.029 425.858c-3.717 5.337-8.718 9.24-14.999 11.716-4.001 1.712-8.192 2.57-12.576 2.57v0.004h-299.433c-4.38 0-8.567-0.859-12.569-2.571-6.285-2.476-11.285-6.382-14.999-11.716s-5.572-11.236-5.572-17.713v-368.289c0-6.477 1.858-12.379 5.572-17.716 3.714-5.334 8.714-9.24 14.999-11.713 3.998-1.712 8.189-2.57 12.569-2.57 8.957 0 16.858 3.142 23.717 9.426l126.001 121.147 126.001-121.151c6.666-6.088 14.571-9.135 23.713-9.135 4.763 0 8.957 0.757 12.576 2.279 6.281 2.476 11.282 6.382 14.999 11.72 3.714 5.334 5.569 11.233 5.569 17.713v368.286c0 6.477-1.859 12.379-5.569 17.713z" horiz-adv-x="758" />
<glyph unicode="&#xe629;" d="M442.743 141.716c0-4.955-1.813-9.244-5.428-12.86-3.619-3.619-7.908-5.428-12.86-5.428h-91.427c-4.955 0-9.24 1.81-12.86 5.428-3.619 3.615-5.428 7.904-5.428 12.86v45.712h-192v-137.143c0-12.568 4.475-23.331 13.428-32.284s19.715-13.428 32.287-13.428h420.573c12.568 0 23.331 4.474 32.284 13.428 8.957 8.953 13.428 19.716 13.428 32.284v137.143h-191.996v-45.712zM342.167 187.427h73.149v-36.573h-73.149v36.573zM621.312 356.857c-8.953 8.953-19.716 13.428-32.284 13.428h-100.577v45.716c0 7.62-2.665 14.094-7.999 19.428-5.33 5.331-11.808 7.999-19.425 7.999h-164.573c-7.617 0-14.094-2.668-19.428-7.999s-7.999-11.808-7.999-19.428v-45.716h-100.573c-12.572 0-23.334-4.474-32.287-13.427s-13.427-19.712-13.427-32.284v-109.715h512v109.716c0 12.572-4.471 23.331-13.428 32.284zM451.882 370.284h-146.285v36.573h146.284v-36.573z" horiz-adv-x="758" />
<glyph unicode="&#xe62a;" d="M574.453 474.572c-3.619 3.619-7.904 5.428-12.856 5.428h-365.716c-4.955 0-9.24-1.81-12.859-5.428s-5.429-7.904-5.429-12.856v-475.427c0-4.955 1.81-9.24 5.428-12.86 3.623-3.619 7.908-5.428 12.859-5.428h365.716c4.952 0 9.24 1.81 12.856 5.428s5.432 7.904 5.432 12.86v475.427c-0.004 4.952-1.813 9.237-5.432 12.856zM543.309 4.57h-109.712v64c0 2.479-0.905 4.622-2.711 6.431-1.817 1.81-3.952 2.711-6.432 2.711h-91.43c-2.476 0-4.618-0.905-6.428-2.711-1.81-1.81-2.714-3.952-2.714-6.432v-64h-109.716v438.861h329.142v-438.861zM259.882 77.712h18.284c2.476 0 4.618 0.901 6.428 2.711 1.81 1.817 2.714 3.952 2.714 6.432v18.288c0 2.473-0.905 4.615-2.714 6.425s-3.952 2.714-6.428 2.714h-18.284c-2.476 0-4.619-0.905-6.428-2.714s-2.714-3.952-2.714-6.425v-18.288c0-2.479 0.905-4.615 2.714-6.432 1.81-1.806 3.952-2.711 6.428-2.711zM259.882 150.858h18.284c2.476 0 4.618 0.905 6.428 2.711 1.81 1.817 2.714 3.952 2.714 6.431v18.288c0 2.473-0.905 4.618-2.714 6.425-1.81 1.81-3.952 2.714-6.428 2.714h-18.284c-2.476 0-4.619-0.909-6.428-2.714s-2.714-3.952-2.714-6.425v-18.288c0-2.479 0.905-4.615 2.714-6.432 1.81-1.806 3.952-2.711 6.428-2.711zM333.028 150.858h18.284c2.476 0 4.618 0.905 6.428 2.711 1.81 1.817 2.714 3.952 2.714 6.431v18.288c0 2.473-0.909 4.615-2.714 6.425-1.81 1.81-3.952 2.714-6.428 2.714h-18.284c-2.476 0-4.618-0.909-6.428-2.714-1.81-1.81-2.714-3.952-2.714-6.425v-18.288c0-2.479 0.905-4.615 2.714-6.432 1.81-1.806 3.952-2.711 6.428-2.711zM259.882 224h18.284c2.476 0 4.618 0.905 6.428 2.714s2.714 3.952 2.714 6.428v18.285c0 2.476-0.905 4.619-2.714 6.428s-3.952 2.714-6.428 2.714h-18.284c-2.476 0-4.619-0.905-6.428-2.714s-2.714-3.952-2.714-6.428v-18.285c0-2.476 0.905-4.619 2.714-6.428s3.952-2.714 6.428-2.714zM479.309 77.712h18.288c2.479 0 4.618 0.901 6.431 2.711 1.81 1.817 2.711 3.952 2.711 6.432v18.288c0 2.473-0.905 4.615-2.711 6.425-1.813 1.81-3.952 2.714-6.432 2.714h-18.288c-2.473 0-4.615-0.905-6.425-2.714s-2.711-3.952-2.711-6.425v-18.288c0-2.479 0.901-4.615 2.711-6.432 1.806-1.806 3.952-2.711 6.425-2.711zM406.171 150.858h18.284c2.479 0 4.618 0.905 6.431 2.711 1.806 1.817 2.707 3.952 2.707 6.431v18.288c0 2.473-0.905 4.615-2.707 6.425-1.813 1.81-3.952 2.714-6.432 2.714h-18.284c-2.476 0-4.622-0.909-6.432-2.714-1.803-1.81-2.711-3.952-2.711-6.425v-18.288c0-2.479 0.905-4.615 2.711-6.432 1.813-1.806 3.955-2.711 6.432-2.711zM333.028 224h18.284c2.476 0 4.618 0.905 6.428 2.714s2.714 3.952 2.714 6.428v18.285c0 2.476-0.909 4.615-2.714 6.428-1.81 1.809-3.952 2.714-6.428 2.714h-18.284c-2.476 0-4.618-0.905-6.428-2.714s-2.714-3.952-2.714-6.428v-18.285c0-2.476 0.905-4.619 2.714-6.428s3.952-2.714 6.428-2.714zM259.882 297.143h18.284c2.476 0 4.618 0.905 6.428 2.714s2.714 3.949 2.714 6.428v18.285c0 2.476-0.905 4.622-2.714 6.428-1.81 1.81-3.952 2.714-6.428 2.714h-18.284c-2.476 0-4.619-0.905-6.428-2.714s-2.714-3.952-2.714-6.428v-18.285c0-2.476 0.905-4.618 2.714-6.428s3.952-2.714 6.428-2.714zM479.309 150.858h18.288c2.479 0 4.618 0.905 6.431 2.711 1.81 1.817 2.711 3.952 2.711 6.431v18.288c0 2.473-0.905 4.615-2.711 6.425-1.813 1.81-3.952 2.714-6.432 2.714h-18.288c-2.473 0-4.615-0.909-6.425-2.714s-2.711-3.952-2.711-6.425v-18.288c0-2.479 0.901-4.615 2.711-6.432 1.806-1.806 3.952-2.711 6.425-2.711zM406.171 224h18.284c2.479 0 4.618 0.905 6.431 2.714 1.806 1.81 2.707 3.952 2.707 6.428v18.285c0 2.476-0.905 4.615-2.707 6.428-1.813 1.809-3.952 2.714-6.432 2.714h-18.284c-2.476 0-4.622-0.905-6.432-2.714-1.803-1.81-2.711-3.952-2.711-6.428v-18.285c0-2.476 0.905-4.619 2.711-6.428 1.813-1.81 3.955-2.714 6.432-2.714zM333.028 297.143h18.284c2.476 0 4.618 0.905 6.428 2.714s2.714 3.949 2.714 6.428v18.285c0 2.476-0.909 4.622-2.714 6.428-1.81 1.81-3.952 2.714-6.428 2.714h-18.284c-2.476 0-4.618-0.905-6.428-2.714s-2.714-3.952-2.714-6.428v-18.285c0-2.476 0.905-4.618 2.714-6.428s3.952-2.714 6.428-2.714zM259.882 370.288h18.284c2.476 0 4.618 0.905 6.428 2.714s2.714 3.952 2.714 6.428v18.285c0 2.476-0.905 4.618-2.714 6.428s-3.952 2.714-6.428 2.714h-18.284c-2.476 0-4.619-0.905-6.428-2.714s-2.714-3.952-2.714-6.428v-18.285c0-2.476 0.905-4.618 2.714-6.428s3.952-2.714 6.428-2.714zM479.309 224h18.288c2.479 0 4.618 0.905 6.431 2.714 1.81 1.81 2.711 3.952 2.711 6.428v18.285c0 2.476-0.905 4.615-2.711 6.428-1.813 1.809-3.952 2.714-6.432 2.714h-18.288c-2.473 0-4.615-0.905-6.425-2.714s-2.711-3.952-2.711-6.428v-18.285c0-2.476 0.901-4.619 2.711-6.428 1.806-1.81 3.952-2.714 6.425-2.714zM406.171 297.143h18.284c2.479 0 4.618 0.905 6.431 2.714 1.806 1.81 2.707 3.949 2.707 6.428v18.285c0 2.476-0.905 4.622-2.707 6.428-1.813 1.81-3.952 2.714-6.432 2.714h-18.284c-2.476 0-4.618-0.905-6.432-2.714-1.803-1.81-2.711-3.952-2.711-6.428v-18.285c0-2.476 0.905-4.618 2.711-6.428 1.813-1.809 3.955-2.714 6.432-2.714zM333.028 370.288h18.284c2.476 0 4.618 0.905 6.428 2.714s2.714 3.952 2.714 6.428v18.285c0 2.476-0.909 4.618-2.714 6.428-1.81 1.809-3.952 2.714-6.428 2.714h-18.284c-2.476 0-4.618-0.905-6.428-2.714s-2.714-3.952-2.714-6.428v-18.285c0-2.476 0.905-4.618 2.714-6.428s3.952-2.714 6.428-2.714zM479.309 297.143h18.288c2.479 0 4.618 0.905 6.431 2.714 1.81 1.81 2.711 3.949 2.711 6.428v18.285c0 2.476-0.905 4.622-2.711 6.428-1.813 1.81-3.952 2.714-6.432 2.714h-18.288c-2.473 0-4.615-0.905-6.425-2.714s-2.711-3.952-2.711-6.428v-18.285c0-2.476 0.901-4.618 2.711-6.428 1.806-1.809 3.952-2.714 6.425-2.714zM406.171 370.288h18.284c2.479 0 4.618 0.905 6.431 2.714 1.806 1.81 2.707 3.952 2.707 6.428v18.285c0 2.476-0.905 4.618-2.707 6.428-1.813 1.809-3.952 2.714-6.432 2.714h-18.284c-2.476 0-4.622-0.905-6.432-2.714-1.803-1.81-2.711-3.952-2.711-6.428v-18.285c0-2.476 0.905-4.618 2.711-6.428 1.813-1.81 3.955-2.714 6.432-2.714zM479.309 370.288h18.288c2.479 0 4.618 0.905 6.431 2.714 1.81 1.81 2.711 3.952 2.711 6.428v18.285c0 2.476-0.905 4.618-2.711 6.428-1.813 1.809-3.952 2.714-6.432 2.714h-18.288c-2.473 0-4.615-0.905-6.425-2.714s-2.711-3.952-2.711-6.428v-18.285c0-2.476 0.901-4.618 2.711-6.428 1.806-1.81 3.952-2.714 6.425-2.714z" horiz-adv-x="758" />
<glyph unicode="&#xe62c;" d="M605.601 396c-7.231 7.238-15.809 10.857-25.712 10.857h-36.569v27.43c0 12.568-4.478 23.331-13.431 32.284-8.957 8.953-19.712 13.431-32.288 13.431h-18.281c-12.575 0-23.334-4.478-32.288-13.431-8.957-8.953-13.431-19.716-13.431-32.284v-27.43h-109.712v27.43c0 12.568-4.478 23.331-13.431 32.284s-19.716 13.431-32.288 13.431h-18.284c-12.572 0-23.334-4.478-32.287-13.431s-13.431-19.716-13.431-32.284v-27.43h-36.57c-9.907 0-18.477-3.619-25.715-10.857s-10.857-15.813-10.857-25.716v-365.719c0-9.9 3.619-18.471 10.857-25.712 7.238-7.238 15.809-10.857 25.715-10.857h402.284c9.904 0 18.481 3.619 25.712 10.857 7.238 7.238 10.857 15.813 10.857 25.712v365.719c0 9.907-3.615 18.478-10.85 25.715zM259.882 4.57h-82.284v82.288h82.284v-82.288zM259.882 105.142h-82.284v91.423h82.284v-91.423zM259.882 214.858h-82.284v82.284h82.284v-82.284zM253.458 345.572c-1.81 1.81-2.714 3.948-2.714 6.428v82.284c0 2.476 0.905 4.619 2.714 6.428s3.948 2.715 6.428 2.715h18.284c2.476 0 4.618-0.905 6.428-2.715s2.714-3.952 2.714-6.428v-82.284c0-2.48-0.909-4.619-2.714-6.428-1.81-1.81-3.949-2.714-6.428-2.714h-18.284c-2.476 0-4.619 0.905-6.428 2.714zM369.598 4.57h-91.43v82.288h91.43v-82.288zM369.598 105.142h-91.43v91.423h91.43v-91.423zM369.598 214.858h-91.43v82.284h91.43v-82.284zM479.316 4.57h-91.43v82.288h91.43v-82.288zM479.316 105.142h-91.43v91.423h91.43v-91.423zM479.316 214.858h-91.43v82.284h91.43v-82.284zM472.885 345.572c-1.806 1.81-2.707 3.948-2.707 6.428v82.284c0 2.476 0.901 4.619 2.707 6.428 1.81 1.81 3.952 2.715 6.432 2.715h18.281c2.479 0 4.622-0.905 6.431-2.715s2.711-3.952 2.711-6.428v-82.284c0-2.48-0.905-4.619-2.711-6.428s-3.952-2.714-6.432-2.714h-18.281c-2.479 0-4.625 0.905-6.431 2.714zM579.882 4.57h-82.288v82.288h82.288v-82.288zM579.882 105.142h-82.288v91.423h82.288v-91.423zM579.882 214.858h-82.288v82.284h82.288v-82.284z" horiz-adv-x="758" />
<glyph unicode="&#xe62d;" d="M624.027 432.717c-7.14 7.14-15.76 10.714-25.856 10.714h-438.858c-10.096 0-18.716-3.577-25.859-10.714-7.14-7.144-10.713-15.763-10.713-25.859v-365.716c0-10.096 3.57-18.712 10.713-25.856 7.147-7.144 15.763-10.717 25.859-10.717h438.851c10.1 0 18.72 3.574 25.863 10.717 7.136 7.144 10.713 15.76 10.713 25.856v365.716c0 10.093-3.577 18.712-10.713 25.859zM195.882 425.146h109.716v-36.573h-109.716v36.573zM598.17 41.142h-438.858v36.573h438.858v-36.573zM269.024 205.144c0 30.285 10.717 56.144 32.144 77.572 21.43 21.427 47.286 32.14 77.572 32.14 30.288 0 56.144-10.713 77.572-32.14s32.14-47.286 32.14-77.572c0-30.288-10.714-56.144-32.14-77.572s-47.283-32.144-77.572-32.144c-30.285 0-56.141 10.717-77.572 32.144s-32.144 47.283-32.144 77.572zM598.17 367.427v-33.712h-438.858v36.569h184.005l18.284 36.57h236.569v-39.428zM430.452 153.428c14.287 14.287 21.43 31.523 21.43 51.716 0 20.189-7.144 37.428-21.43 51.712-14.284 14.287-31.519 21.43-51.712 21.43s-37.428-7.143-51.716-21.43c-14.284-14.284-21.427-31.523-21.427-51.712 0-20.192 7.14-37.428 21.427-51.716 14.287-14.284 31.526-21.427 51.716-21.427 20.192 0 37.428 7.144 51.712 21.427zM359.308 225.143c-5.334-5.334-7.999-11.811-7.999-19.428 0-2.668-0.856-4.861-2.57-6.572-1.715-1.715-3.903-2.57-6.572-2.57s-4.857 0.856-6.572 2.57c-1.715 1.712-2.57 3.903-2.57 6.572 0 12.572 4.474 23.331 13.428 32.284s19.716 13.428 32.288 13.428c2.665 0 4.857-0.856 6.572-2.571 1.715-1.712 2.57-3.903 2.57-6.569 0-2.668-0.856-4.861-2.574-6.576-1.715-1.715-3.906-2.571-6.572-2.571-7.62 0-14.094-2.665-19.428-7.999z" horiz-adv-x="758" />
<glyph unicode="&#xe631;" d="M591.875 185.449l-39.424 38.572 39.424 38.572c5.716 5.334 7.62 12 5.716 20-2.283 7.81-7.235 12.666-14.859 14.571l-53.711 13.716 15.143 53.143c2.283 7.806 0.481 14.476-5.432 19.999-5.52 5.906-12.187 7.715-20 5.429l-53.136-15.143-13.719 53.715c-1.904 7.81-6.754 12.666-14.564 14.571-7.813 2.097-14.48 0.284-20-5.428l-38.575-39.715-38.572 39.715c-5.524 5.906-12.19 7.715-20 5.428-7.81-1.904-12.666-6.761-14.571-14.571l-13.716-53.715-53.143 15.143c-7.81 2.286-14.476 0.477-20-5.429-5.905-5.523-7.715-12.19-5.429-19.999l15.143-53.143-53.715-13.716c-7.617-1.904-12.572-6.761-14.855-14.571-1.907-7.999 0-14.666 5.713-20l39.428-38.572-39.428-38.572c-5.713-5.334-7.617-12-5.713-20 2.283-7.81 7.238-12.666 14.855-14.571l53.714-13.712-15.143-53.143c-2.286-7.81-0.477-14.473 5.429-20 5.524-5.906 12.19-7.712 20-5.428l53.143 15.139 13.716-53.711c1.904-7.81 6.761-12.762 14.571-14.855 7.999-1.904 14.666 0 20 5.712l38.572 39.428 38.575-39.431c3.808-4.183 8.666-6.281 14.567-6.281 1.336 0 3.142 0.193 5.432 0.568 7.81 2.286 12.663 7.238 14.567 14.855l13.712 53.711 53.14-15.139c7.813-2.283 14.48-0.477 20 5.428 5.909 5.527 7.715 12.193 5.432 20l-15.139 53.143 53.707 13.712c7.628 1.904 12.576 6.761 14.859 14.571 1.908 8.002 0.004 14.669-5.716 20.003z" horiz-adv-x="758" />
<glyph unicode="&#xe640;" d="M595.877 261.856c-1.529 2.003-3.524 3.195-6 3.574l-52.284 7.999c-2.858 9.143-6.764 18.474-11.716 27.999 3.426 4.762 8.567 11.475 15.423 20.144s11.713 14.999 14.571 19c1.525 2.097 2.283 4.285 2.283 6.572 0 2.665-0.663 4.759-1.999 6.284-6.856 9.717-22.57 25.905-47.142 48.573-2.279 1.904-4.664 2.855-7.137 2.855-2.858 0-5.144-0.856-6.86-2.567l-40.567-30.572c-7.813 4.001-16.384 7.525-25.716 10.573l-7.999 52.567c-0.19 2.476-1.287 4.524-3.286 6.144-2.002 1.62-4.331 2.426-7.003 2.426h-63.425c-5.524 0-8.953-2.665-10.286-7.999-2.476-9.521-5.239-27.234-8.286-53.139-8.953-2.862-17.618-6.481-26-10.861l-39.428 30.572c-2.476 1.904-4.952 2.855-7.428 2.855-4.19 0-13.19-6.807-26.999-20.428s-23.188-23.857-28.143-30.713c-1.715-2.476-2.571-4.667-2.571-6.572 0-2.286 0.951-4.573 2.855-6.856 12.762-15.43 22.952-28.57 30.572-39.431-4.762-8.76-8.476-17.524-11.142-26.284l-53.143-7.999c-2.094-0.382-3.903-1.62-5.429-3.717-1.525-2.094-2.286-4.286-2.286-6.568v-63.429c0-2.479 0.761-4.713 2.286-6.712 1.525-2.002 3.524-3.198 6-3.577l52.287-7.715c2.665-9.332 6.569-18.758 11.713-28.279-3.426-4.762-8.571-11.474-15.427-20.144s-11.716-14.999-14.571-19c-1.525-2.101-2.286-4.286-2.286-6.572 0-2.476 0.667-4.664 1.999-6.568 7.428-10.289 23.142-26.291 47.143-48.002 2.097-2.097 4.478-3.142 7.143-3.142 2.858 0 5.239 0.856 7.143 2.567l40.286 30.576c7.813-4.002 16.384-7.526 25.716-10.577l7.999-52.567c0.193-2.476 1.287-4.524 3.286-6.144 1.999-1.623 4.334-2.426 7-2.426h63.428c5.531 0 8.957 2.665 10.293 7.999 2.473 9.524 5.232 27.234 8.279 53.139 8.953 2.858 17.622 6.481 26 10.861l39.431-30.861c2.665-1.712 5.144-2.567 7.428-2.567 4.187 0 13.14 6.757 26.852 20.284 13.719 13.522 23.145 23.812 28.283 30.861 1.715 1.904 2.574 4.092 2.574 6.569s-0.951 4.864-2.858 7.144c-13.712 16.762-23.903 29.903-30.572 39.428 3.808 7.049 7.525 15.714 11.145 26l52.855 7.995c2.283 0.382 4.194 1.623 5.716 3.721s2.279 4.289 2.279 6.572v63.425c0.004 2.476-0.754 4.709-2.283 6.712zM430.455 172.288c-14.284-14.287-31.523-21.43-51.716-21.43s-37.428 7.144-51.716 21.43c-14.284 14.284-21.427 31.519-21.427 51.712s7.14 37.428 21.427 51.716c14.287 14.284 31.526 21.427 51.716 21.427 20.192 0 37.432-7.143 51.716-21.427 14.284-14.287 21.427-31.523 21.427-51.716s-7.144-37.428-21.427-51.712z" horiz-adv-x="758" />
<glyph unicode="&#xe642;" d="M600.461 352.47c-22.861 28.093-53.911 50.284-93.145 66.57s-82.096 24.428-128.572 24.428c-34.668 0-67.812-4.808-99.43-14.427s-58.856-22.619-81.713-38.999c-22.861-16.381-41.047-35.858-54.573-58.428s-20.287-46.238-20.287-71c0-28.571 8.617-55.341 25.856-80.293s40.809-45.904 70.715-62.857c-2.097-7.617-4.573-14.855-7.431-21.711s-5.429-12.481-7.715-16.861c-2.286-4.38-5.38-9.237-9.286-14.571-3.903-5.334-6.856-9.097-8.855-11.285-1.999-2.192-5.285-5.815-9.858-10.857-4.57-5.050-7.522-8.336-8.855-9.861-0.193-0.091-0.954-0.95-2.286-2.57-1.333-1.616-1.999-2.423-1.999-2.423l-1.715-2.567c-0.954-1.431-1.381-2.336-1.287-2.711s-0.095-1.332-0.571-2.854c-0.477-1.526-0.428-2.668 0.144-3.433v-0.284c0.764-3.43 2.43-6.19 5.001-8.283s5.477-2.953 8.714-2.567c12.382 1.526 23.24 3.612 32.571 6.281 49.906 12.769 93.717 35.808 131.429 69.148 14.284-1.526 28.094-2.286 41.426-2.286 46.476 0 89.337 8.143 128.571 24.435 39.235 16.283 70.284 38.474 93.142 66.563 22.857 28.083 34.287 58.704 34.287 91.848s-11.429 63.765-34.279 91.855z" horiz-adv-x="758" />
<glyph unicode="&#xe643;" d="M592.17 346.859l-38.856 38.856c-5.331 5.334-11.811 7.999-19.428 7.999-7.62 0-14.101-2.665-19.432-7.999l-187.427-187.715-84 84.287c-5.334 5.334-11.811 7.999-19.428 7.999-7.62 0-14.097-2.665-19.431-7.999l-38.856-38.856c-5.334-5.334-7.999-11.811-7.999-19.431 0-7.617 2.665-14.098 7.999-19.428l142.287-142.284c5.33-5.334 11.808-7.999 19.428-7.999 7.617 0 14.094 2.668 19.428 7.999l245.714 245.711c5.331 5.334 7.999 11.811 7.999 19.432 0.004 7.617-2.668 14.094-7.999 19.428z" horiz-adv-x="758" />
<glyph unicode="&#xe645;" d="M639.596 430c-8.953 8.953-19.712 13.428-32.28 13.428h-457.149c-12.572 0-23.331-4.475-32.287-13.428-8.953-8.953-13.427-19.712-13.427-32.284v-347.427c0-12.572 4.475-23.334 13.427-32.288 8.957-8.953 19.715-13.428 32.287-13.428h457.149c12.568 0 23.327 4.474 32.28 13.428s13.431 19.716 13.431 32.288v347.427c0 12.572-4.478 23.331-13.431 32.284zM616.452 50.284c0-2.479-0.905-4.618-2.711-6.432-1.809-1.806-3.952-2.707-6.424-2.707h-457.149c-2.476 0-4.619 0.905-6.428 2.711-1.81 1.817-2.714 3.952-2.714 6.432v173.712h475.427v-173.716zM616.452 333.719h-475.427v64c0 2.476 0.901 4.615 2.714 6.428 1.81 1.806 3.952 2.711 6.428 2.711h457.149c2.472 0 4.615-0.901 6.424-2.711 1.809-1.813 2.711-3.952 2.711-6.428v-64zM177.597 114.288h73.143v-36.573h-73.142v36.573zM287.313 114.288h109.716v-36.573h-109.716v36.573z" horiz-adv-x="758" />
<glyph unicode="&#xe646;" d="M568.741 334.143c-19.621 33.616-46.238 60.233-79.855 79.854-33.623 19.621-70.33 29.43-110.143 29.43-39.81 0-76.526-9.809-110.143-29.43-33.62-19.618-60.237-46.234-79.858-79.854-19.625-33.62-29.433-70.337-29.433-110.143 0-39.81 9.812-76.519 29.429-110.143 19.621-33.613 46.238-60.233 79.858-79.855s70.334-29.43 110.143-29.43c39.81 0 76.526 9.808 110.143 29.43 33.616 19.618 60.234 46.238 79.855 79.855 19.617 33.62 29.426 70.337 29.426 110.143 0 39.81-9.808 76.526-29.423 110.143zM482.167 172.288c3.619-3.615 5.432-7.908 5.432-12.86 0-5.141-1.813-9.524-5.432-13.14l-25.712-25.716c-3.619-3.619-7.999-5.428-13.144-5.428-4.952 0-9.244 1.81-12.856 5.428l-51.716 51.716-51.716-51.716c-3.619-3.619-7.904-5.428-12.856-5.428-5.144 0-9.524 1.81-13.144 5.428l-25.716 25.716c-3.619 3.615-5.428 7.999-5.428 13.14 0 4.952 1.81 9.244 5.428 12.86l51.716 51.712-51.716 51.716c-3.619 3.615-5.428 7.904-5.428 12.856 0 5.144 1.81 9.524 5.428 13.143l25.716 25.712c3.619 3.619 7.999 5.428 13.144 5.428 4.952 0 9.237-1.81 12.856-5.428l51.716-51.712 51.716 51.712c3.612 3.619 7.904 5.428 12.856 5.428 5.144 0 9.524-1.81 13.144-5.428l25.712-25.712c3.619-3.619 5.432-7.999 5.432-13.143 0-4.952-1.813-9.24-5.432-12.856l-51.712-51.716 51.712-51.712z" horiz-adv-x="758" />
<glyph unicode="&#xe647;" d="M614.46 268.572c-13.519 31.621-31.712 58.856-54.57 81.716-22.857 22.858-50.096 41.048-81.72 54.57-31.622 13.522-64.761 20.287-99.43 20.287s-67.812-6.764-99.43-20.287c-31.618-13.526-58.856-31.713-81.713-54.57-22.861-22.861-41.047-50.096-54.573-81.716-13.523-31.621-20.284-64.764-20.284-99.43 0-49.902 13.428-95.906 40.286-138.005 3.615-5.524 8.76-8.283 15.427-8.283h400.573c6.663 0 11.808 2.76 15.423 8.283 26.862 42.286 40.29 88.288 40.29 138.005 0 34.665-6.761 67.808-20.28 99.43zM352.88 377.856c7.147 7.144 15.764 10.717 25.86 10.717s18.712-3.573 25.856-10.717c7.144-7.14 10.721-15.76 10.721-25.856s-3.577-18.712-10.721-25.856-15.76-10.717-25.856-10.717-18.716 3.573-25.86 10.717c-7.14 7.144-10.714 15.76-10.714 25.856s3.57 18.716 10.714 25.856zM221.742 143.286c-7.143-7.144-15.763-10.721-25.859-10.721-10.093 0-18.713 3.577-25.856 10.721-7.143 7.137-10.714 15.76-10.714 25.856s3.57 18.712 10.714 25.856 15.763 10.717 25.856 10.717c10.096 0 18.72-3.574 25.859-10.717s10.714-15.76 10.714-25.856-3.573-18.712-10.714-25.856zM276.599 271.286c-7.147-7.143-15.764-10.717-25.859-10.717s-18.716 3.577-25.859 10.717c-7.14 7.14-10.714 15.76-10.714 25.856s3.57 18.713 10.714 25.856c7.147 7.143 15.763 10.717 25.859 10.717s18.716-3.574 25.859-10.717c7.14-7.143 10.714-15.76 10.714-25.856 0-10.093-3.574-18.713-10.714-25.856zM438.451 268.856l-28.858-109.14c9.528-6.477 16.384-15.139 20.578-26.003 4.187-10.857 4.762-21.998 1.715-33.428-3.808-14.666-12.288-25.81-25.432-33.428-13.144-7.62-27.048-9.528-41.717-5.716-14.666 3.808-25.81 12.284-33.428 25.428-7.617 13.147-9.521 27.048-5.712 41.718 3.048 11.425 9.048 20.806 18 28.135 8.95 7.337 19.14 11.478 30.569 12.432l28.858 109.144c1.332 4.952 4.187 8.718 8.567 11.288 4.384 2.567 8.953 3.188 13.716 1.855 4.766-1.336 8.43-4.142 11.001-8.427 2.574-4.289 3.289-8.908 2.142-13.859zM480.884 271.286c-7.144 7.14-10.721 15.76-10.721 25.856s3.577 18.713 10.721 25.856c7.144 7.143 15.76 10.717 25.856 10.717s18.712-3.574 25.856-10.717c7.144-7.143 10.721-15.76 10.721-25.856 0-10.093-3.577-18.713-10.721-25.856s-15.76-10.717-25.856-10.717-18.712 3.574-25.856 10.717zM587.453 143.286c-7.144-7.144-15.76-10.721-25.856-10.721s-18.712 3.577-25.856 10.721c-7.144 7.137-10.717 15.76-10.717 25.856s3.573 18.712 10.717 25.856 15.76 10.717 25.856 10.717 18.712-3.574 25.856-10.717c7.14-7.144 10.713-15.76 10.713-25.856s-3.57-18.712-10.713-25.856z" horiz-adv-x="758" />
<glyph unicode="&#xe648;" d="M639.593 448.284c-8.953 8.953-19.708 13.431-32.284 13.431h-457.142c-12.572 0-23.331-4.478-32.287-13.431-8.953-8.953-13.427-19.712-13.427-32.284v-310.858c0-12.575 4.475-23.334 13.427-32.288 8.957-8.953 19.715-13.428 32.287-13.428h155.43c0-7.235-1.526-14.669-4.573-22.282-3.048-7.62-6.095-14.287-9.142-20-3.044-5.716-4.57-9.904-4.57-12.568 0-4.952 1.81-9.244 5.428-12.856 3.619-3.623 7.904-5.435 12.856-5.435h146.284c4.952 0 9.24 1.813 12.856 5.435 3.623 3.612 5.432 7.904 5.432 12.856 0 2.473-1.529 6.618-4.577 12.425s-6.095 12.575-9.139 20.284c-3.048 7.715-4.573 15.094-4.573 22.142h155.43c12.568 0 23.327 4.474 32.28 13.428s13.431 19.712 13.431 32.288v310.858c0.004 12.572-4.475 23.331-13.431 32.284zM616.452 178.284c0-2.476-0.905-4.618-2.715-6.428-1.809-1.806-3.952-2.711-6.428-2.711h-457.142c-2.476 0-4.619 0.905-6.428 2.711-1.81 1.817-2.714 3.952-2.714 6.428v237.716c0 2.476 0.901 4.618 2.714 6.428 1.81 1.806 3.952 2.714 6.428 2.714h457.15c2.472 0 4.619-0.905 6.424-2.714 1.809-1.81 2.711-3.952 2.711-6.428v-237.716z" horiz-adv-x="758" />
<glyph unicode="&#xe64c;" d="M608.452 142.855c-5.331 5.334-11.808 7.999-19.424 7.999h-132.577l-38.856-38.856c-11.046-10.664-24.001-15.998-38.856-15.998s-27.81 5.33-38.856 15.998l-38.572 38.856h-132.857c-7.617 0-14.094-2.668-19.428-7.999s-7.999-11.808-7.999-19.428v-91.427c0-7.62 2.665-14.098 7.999-19.428s11.811-7.999 19.428-7.999h420.573c7.617 0 14.097 2.668 19.424 7.999 5.334 5.334 7.999 11.808 7.999 19.428v91.427c0 7.62-2.665 14.098-7.999 19.428zM501.315 46.571c-3.623-3.619-7.911-5.428-12.863-5.428s-9.233 1.81-12.856 5.428c-3.615 3.619-5.425 7.904-5.425 12.856 0 4.948 1.81 9.24 5.425 12.856 3.623 3.619 7.904 5.432 12.856 5.432s9.24-1.813 12.863-5.432c3.615-3.615 5.425-7.908 5.425-12.856 0-4.952-1.81-9.233-5.425-12.856zM574.453 46.571c-3.615-3.619-7.904-5.428-12.856-5.428s-9.237 1.81-12.856 5.428c-3.615 3.619-5.425 7.904-5.425 12.856 0 4.948 1.809 9.24 5.425 12.856 3.619 3.619 7.904 5.432 12.856 5.432s9.24-1.813 12.856-5.432c3.619-3.615 5.432-7.908 5.432-12.856-0.004-4.952-1.809-9.233-5.432-12.856zM365.884 138.002c3.43-3.615 7.715-5.425 12.856-5.425 5.144 0 9.426 1.81 12.856 5.425l128 128c5.905 5.524 7.238 12.19 4.001 20-3.234 7.428-8.855 11.142-16.858 11.145h-73.142v128c0 4.951-1.813 9.237-5.425 12.856-3.623 3.619-7.908 5.428-12.856 5.428h-73.149c-4.952 0-9.237-1.81-12.856-5.428s-5.428-7.905-5.428-12.856v-128h-73.142c-8.002 0-13.62-3.718-16.858-11.145-3.237-7.806-1.904-14.476 4.001-20l128-128z" horiz-adv-x="758" />
<glyph unicode="&#xe64d;" d="M281.029 107.997l97.712 81.429-141.14 87.145-96.572-77.431zM378.74 189.433l97.999-81.433 139.713 91.143-96.568 77.428zM379.312 171.713v0.575l-0.284-0.288-0.288 0.288v-0.575l-97.712-81.142-42.001 27.427v-30.853l139.713-83.719v-0.284l0.288 0.284 0.284-0.284v0.284l140 83.719v30.853l-42.005-27.427zM141.028 353.715l96.571-77.144 141.14 86.858-97.712 81.429zM476.738 444.858l-97.999-81.429 141.144-86.857 96.568 77.144z" horiz-adv-x="758" />
<glyph unicode="&#xe651;" d="M171.881 301.14c6.477-4.57 26-18.144 58.571-40.714s57.523-39.95 74.857-52.137c1.904-1.336 5.951-4.24 12.14-8.714 6.19-4.478 11.334-8.101 15.426-10.861 4.096-2.76 9.048-5.856 14.858-9.283s11.288-6 16.43-7.708c5.144-1.719 9.907-2.57 14.287-2.57h0.575c4.38 0 9.142 0.852 14.287 2.57 5.141 1.708 10.622 4.286 16.43 7.708 5.808 3.43 10.759 6.522 14.855 9.283s9.237 6.382 15.426 10.861 10.24 7.378 12.144 8.714c17.52 12.19 62.096 43.142 133.712 92.858 13.904 9.71 25.519 21.427 34.855 35.142 9.338 13.709 14.003 28.090 14.003 43.138 0 12.572-4.528 23.334-13.575 32.287s-19.764 13.428-32.14 13.428h-420.573c-14.666 0-25.951-4.952-33.855-14.855-7.904-9.907-11.856-22.289-11.856-37.144 0-12 5.239-25.004 15.714-39.003s21.619-25 33.428-33zM606.166 270.571c-62.471-42.282-109.904-75.142-142.28-98.571-10.857-7.999-19.666-14.241-26.431-18.712-6.761-4.478-15.76-9.048-26.999-13.716-11.236-4.668-21.711-7-31.425-7h-0.579c-9.714 0-20.192 2.332-31.428 7s-20.238 9.237-26.999 13.716c-6.761 4.471-15.57 10.714-26.428 18.712-25.716 18.856-73.048 51.716-142 98.57-10.857 7.234-20.476 15.525-28.858 24.857v-226.851c0-12.575 4.475-23.334 13.428-32.288 8.953-8.957 19.715-13.431 32.287-13.431h420.573c12.568 0 23.331 4.474 32.284 13.431 8.957 8.957 13.428 19.712 13.428 32.288v226.851c-8.192-9.139-17.713-17.429-28.574-24.856z" horiz-adv-x="758" />
<glyph unicode="&#xe652;" d="M568.741 334.143c-19.621 33.616-46.238 60.233-79.855 79.854-33.623 19.621-70.33 29.43-110.143 29.43-39.81 0-76.523-9.809-110.143-29.43-33.62-19.618-60.237-46.234-79.858-79.854-19.625-33.62-29.433-70.337-29.433-110.143s9.812-76.519 29.429-110.143c19.621-33.61 46.238-60.233 79.858-79.855s70.334-29.43 110.143-29.43c39.81 0 76.526 9.808 110.143 29.43 33.616 19.618 60.234 46.238 79.855 79.855 19.617 33.623 29.426 70.341 29.426 110.143 0 39.806-9.808 76.526-29.423 110.143zM415.316 87.145c0-2.668-0.863-4.902-2.574-6.712s-3.808-2.711-6.288-2.711h-54.858c-2.476 0-4.668 0.95-6.572 2.854s-2.854 4.096-2.854 6.569v54.283c0 2.476 0.95 4.668 2.854 6.572s4.096 2.854 6.572 2.854h54.858c2.479 0 4.58-0.905 6.288-2.711 1.712-1.817 2.574-4.047 2.574-6.716v-54.282zM414.741 185.428c-0.193-1.904-1.189-3.574-2.995-5.001-1.813-1.428-4.047-2.139-6.712-2.139h-52.858c-2.668 0-4.955 0.712-6.86 2.139s-2.858 3.096-2.858 5.001l-4.857 177.429c0 2.29 0.95 4.002 2.854 5.144 1.908 1.522 4.194 2.287 6.86 2.287h62.864c2.668 0 4.952-0.761 6.856-2.287 1.904-1.143 2.851-2.858 2.851-5.144l-5.144-177.429z" horiz-adv-x="758" />
<glyph unicode="&#xe654;" d="M542.173 334.855l-89.144 89.144c-9.528 9.524-22.1 15.717-37.719 18.572v-145.429h145.432c-2.858 15.623-9.051 28.191-18.569 37.713zM406.171 260.573c-7.624 0-14.101 2.665-19.431 7.999-5.334 5.331-7.999 11.808-7.999 19.428v155.427h-155.427c-7.617 0-14.094-2.665-19.428-7.999-5.334-5.331-7.999-11.808-7.999-19.428v-384c0-7.62 2.665-14.098 7.999-19.428s11.811-7.999 19.428-7.999h310.861c7.617 0 14.091 2.668 19.421 7.999 5.334 5.334 7.999 11.808 7.999 19.428v228.573h-155.423z" horiz-adv-x="758" />
<glyph unicode="&#xe656;" d="M255.169 228.716c19.617 9.044 38.383 13.568 56.285 13.568h237.719v45.715c0 17.524-6.288 32.578-18.864 45.15-12.572 12.572-27.616 18.857-45.144 18.857h-155.427v9.142c0 17.524-6.284 32.572-18.856 45.14-12.572 12.572-27.62 18.86-45.144 18.86h-91.427c-17.524 0-32.572-6.288-45.144-18.86-12.572-12.568-18.856-27.616-18.856-45.14v-274.284c0-0.764 0.049-1.957 0.144-3.577 0.094-1.616 0.144-2.809 0.144-3.57l1.427 1.708 96.287 113.149c11.618 13.716 27.238 25.099 46.855 34.142zM639.596 202.002c-5.047 2.479-10.808 3.721-17.285 3.721h-310.858c-12.572 0-26.238-3.384-40.998-10.146-14.761-6.768-26.238-14.999-34.427-24.72l-96-113.142c-5.905-6.666-8.858-12.954-8.858-18.86 0-5.712 2.525-9.808 7.571-12.284s10.808-3.717 17.286-3.717h310.865c12.568 0 26.231 3.384 40.995 10.146 14.76 6.761 26.235 14.999 34.427 24.716l96 113.142c5.902 6.666 8.851 12.951 8.851 18.863 0.004 5.712-2.518 9.805-7.568 12.281z" horiz-adv-x="758" />
<glyph unicode="&#xe658;" d="M567.026 284.286c3.622-3.619 7.904-5.432 12.856-5.432 2.283 0 4.671 0.477 7.144 1.431 7.431 3.237 11.145 8.858 11.145 16.858v128c0 4.952-1.809 9.237-5.432 12.856-3.615 3.619-7.904 5.428-12.856 5.428h-128c-7.999 0-13.617-3.808-16.861-11.429-3.233-7.428-1.904-14 4.005-19.712l41.139-41.143-101.425-101.428-101.428 101.432 41.142 41.142c5.906 5.712 7.238 12.284 4.002 19.712-3.24 7.62-8.858 11.429-16.858 11.429h-128c-4.955 0-9.24-1.81-12.859-5.428s-5.429-7.905-5.429-12.856v-128c0-8.003 3.812-13.62 11.429-16.858 2.286-0.95 4.573-1.431 6.859-1.431 4.952 0 9.237 1.813 12.856 5.432l41.142 41.139 101.428-101.428-101.428-101.425-41.142 41.146c-5.716 5.906-12.285 7.235-19.715 4.002-7.62-3.24-11.429-8.862-11.429-16.865v-128c0-4.952 1.81-9.237 5.428-12.856 3.623-3.615 7.908-5.425 12.859-5.425h128c8.002 0 13.62 3.808 16.858 11.425 3.237 7.431 1.904 14-4.002 19.719l-41.142 41.135 101.428 101.432 101.425-101.435-41.142-41.139c-5.906-5.712-7.235-12.288-4.002-19.712 3.24-7.624 8.862-11.433 16.865-11.433h128c4.952 0 9.237 1.813 12.856 5.432 3.615 3.615 5.425 7.904 5.425 12.856v128c0 7.999-3.714 13.62-11.145 16.861-7.806 3.233-14.473 1.904-20-4.005l-41.135-41.139-101.432 101.425 101.428 101.428 41.143-41.142z" horiz-adv-x="758" />
<glyph unicode="&#xe659;" d="M598.451 407.998c-24.19 23.622-57.617 35.43-100.289 35.43-11.808 0-23.857-2.048-36.142-6.141-12.288-4.096-23.717-9.623-34.283-16.574-10.573-6.95-19.663-13.477-27.287-19.571-7.617-6.095-14.855-12.572-21.711-19.428-6.86 6.856-14.098 13.333-21.714 19.428-7.62 6.095-16.714 12.618-27.287 19.571s-22.002 12.478-34.286 16.574c-12.284 4.093-24.334 6.141-36.142 6.141-42.668 0-76.095-11.811-100.286-35.43s-36.285-56.38-36.285-98.283c0-12.762 2.241-25.909 6.716-39.428 4.475-13.522 9.573-25.049 15.286-34.571s12.19-18.811 19.428-27.859 12.526-15.283 15.858-18.712c3.332-3.426 5.951-5.902 7.856-7.424l178.284-172c3.43-3.433 7.62-5.148 12.572-5.148s9.142 1.715 12.572 5.141l178 171.433c43.618 43.614 65.428 86.472 65.428 128.568 0 41.904-12.098 74.664-36.289 98.283z" horiz-adv-x="758" />
<glyph unicode="&#xe65b;" d="M568.741 334.143c-19.621 33.616-46.238 60.233-79.855 79.854-33.623 19.621-70.33 29.43-110.143 29.43-39.81 0-76.526-9.809-110.143-29.43-33.62-19.618-60.237-46.234-79.858-79.854-19.625-33.62-29.433-70.337-29.433-110.143 0-39.81 9.812-76.519 29.429-110.143 19.621-33.613 46.238-60.233 79.858-79.855s70.334-29.43 110.143-29.43c39.81 0 76.526 9.808 110.143 29.43 33.616 19.618 60.234 46.238 79.855 79.855 19.617 33.62 29.426 70.337 29.426 110.143 0 39.81-9.808 76.526-29.423 110.143zM342.171 388.573c0 2.668 0.856 4.857 2.57 6.572 1.715 1.712 3.906 2.571 6.572 2.571h54.861c2.665 0 4.857-0.859 6.565-2.571 1.712-1.715 2.574-3.903 2.574-6.572v-45.716c0-2.665-0.863-4.857-2.574-6.568-1.708-1.715-3.899-2.571-6.565-2.571h-54.861c-2.665 0-4.857 0.856-6.572 2.571-1.715 1.712-2.57 3.903-2.57 6.568v45.716zM451.882 86.858c0-2.665-0.863-4.857-2.57-6.565-1.708-1.715-3.899-2.57-6.572-2.57h-128c-2.668 0-4.857 0.856-6.572 2.57-1.715 1.712-2.57 3.903-2.57 6.568v45.716c0 2.672 0.856 4.857 2.57 6.572 1.715 1.712 3.906 2.57 6.572 2.57h27.43v91.427h-27.43c-2.668 0-4.857 0.856-6.572 2.571-1.715 1.712-2.57 3.903-2.57 6.572v45.712c0 2.668 0.856 4.857 2.57 6.572s3.906 2.57 6.572 2.57h91.434c2.665 0 4.857-0.856 6.565-2.57 1.712-1.715 2.574-3.903 2.574-6.572v-146.285h27.423c2.668 0 4.861-0.859 6.572-2.57 1.708-1.712 2.57-3.903 2.57-6.572v-45.716z" horiz-adv-x="758" />
<glyph unicode="&#xe65d;" d="M535.307 234.286c-5.334 5.334-11.808 7.999-19.432 7.999h-9.135v54.861c0 35.048-12.572 65.139-37.712 90.284-25.144 25.144-55.236 37.716-90.288 37.716s-65.147-12.572-90.288-37.716c-25.144-25.144-37.713-55.237-37.713-90.284v-54.861h-9.143c-7.617 0-14.094-2.665-19.428-7.999-5.334-5.331-7.999-11.808-7.999-19.431v-164.573c0-7.617 2.665-14.094 7.999-19.428 5.334-5.33 11.811-7.999 19.428-7.999h274.284c7.624 0 14.097 2.665 19.432 7.999 5.331 5.334 7.999 11.811 7.999 19.428v164.577c0.004 7.617-2.668 14.094-8.006 19.428zM451.882 242.285h-146.285v54.861c0 20.189 7.144 37.429 21.43 51.712 14.287 14.287 31.523 21.427 51.716 21.427s37.428-7.14 51.712-21.427c14.284-14.284 21.427-31.523 21.427-51.712v-54.861z" horiz-adv-x="758" />
<glyph unicode="&#xe65e;" d="M482.167 400.57c-28.57 28.574-63.046 42.857-103.428 42.857s-74.857-14.287-103.428-42.857-42.857-63.046-42.857-103.428c0-20.764 3.142-37.811 9.427-51.144l104.286-221.146c2.858-6.284 7.287-11.236 13.288-14.851 6-3.619 12.428-5.432 19.288-5.432 6.856 0 13.288 1.813 19.288 5.432 6 3.615 10.521 8.567 13.568 14.851l103.996 221.145c6.288 13.333 9.43 30.38 9.43 51.144 0.004 40.382-14.284 74.854-42.857 103.428zM430.452 245.427c-14.284-14.284-31.519-21.427-51.712-21.427s-37.428 7.143-51.716 21.427c-14.287 14.287-21.43 31.523-21.43 51.715 0 20.189 7.144 37.428 21.43 51.712 14.287 14.287 31.526 21.43 51.716 21.43 20.192 0 37.428-7.144 51.712-21.43 14.287-14.284 21.43-31.523 21.43-51.712s-7.144-37.425-21.43-51.715z" horiz-adv-x="758" />
<glyph unicode="&#xe660;" d="M568.741 334.143c-19.621 33.616-46.238 60.233-79.855 79.854-33.623 19.621-70.33 29.43-110.143 29.43-39.81 0-76.526-9.809-110.143-29.43-33.62-19.618-60.237-46.234-79.858-79.854-19.625-33.62-29.433-70.337-29.433-110.143 0-39.81 9.812-76.519 29.429-110.143 19.621-33.613 46.238-60.233 79.858-79.855s70.334-29.43 110.143-29.43c39.81 0 76.526 9.808 110.143 29.43 33.616 19.618 60.234 46.238 79.855 79.855 19.617 33.62 29.426 70.337 29.426 110.143 0 39.81-9.808 76.526-29.423 110.143zM506.74 205.716c0-4.952-1.81-9.244-5.428-12.86s-7.904-5.428-12.856-5.428h-219.43c-4.952 0-9.237 1.813-12.856 5.428s-5.428 7.908-5.428 12.86v36.573c0 4.952 1.81 9.237 5.428 12.856s7.904 5.429 12.856 5.429h219.43c4.952 0 9.237-1.81 12.856-5.428s5.428-7.905 5.428-12.856v-36.573z" horiz-adv-x="758" />
<glyph unicode="&#xe662;" d="M477.594 396c-7.235 7.242-15.809 10.857-25.712 10.857h-146.285c-9.907 0-18.478-3.619-25.716-10.857-7.238-7.234-10.857-15.809-10.857-25.712v-292.573c0-9.907 3.619-18.478 10.857-25.716s15.809-10.857 25.716-10.857h146.284c9.904 0 18.478 3.623 25.712 10.857 7.238 7.238 10.857 15.809 10.857 25.716v292.573c0 9.904-3.615 18.474-10.857 25.712zM355.882 370.288h45.716c3.048 0 4.57-1.526 4.57-4.573s-1.522-4.573-4.57-4.573h-45.716c-3.048 0-4.573 1.526-4.573 4.573s1.526 4.573 4.573 4.573zM394.885 61.57c-4.478-4.471-9.858-6.712-16.145-6.712-6.284 0-11.664 2.238-16.142 6.712-4.478 4.478-6.716 9.861-6.716 16.146s2.241 11.668 6.716 16.142c4.474 4.474 9.858 6.719 16.142 6.719 6.288 0 11.668-2.245 16.145-6.719s6.712-9.858 6.712-16.142c0-6.288-2.238-11.668-6.712-16.145zM461.028 123.427c0-2.476-0.905-4.622-2.718-6.428-1.813-1.81-3.952-2.711-6.425-2.711h-146.288c-2.476 0-4.618 0.905-6.428 2.711s-2.714 3.952-2.714 6.428v201.143c0 2.476 0.905 4.618 2.714 6.428 1.81 1.806 3.952 2.714 6.428 2.714h146.284c2.479 0 4.618-0.905 6.432-2.714 1.81-1.81 2.711-3.952 2.711-6.428v-201.143z" horiz-adv-x="758" />
<glyph unicode="&#xe663;" d="M629.308 236.856l-73.143 73.142c-3.615 3.619-7.904 5.428-12.856 5.428s-9.237-1.81-12.86-5.428c-3.612-3.623-5.425-7.908-5.425-12.859v-36.573h-109.716v109.716h36.577c4.952 0 9.237 1.81 12.856 5.428 3.615 3.619 5.425 7.901 5.425 12.856s-1.81 9.24-5.425 12.859l-73.146 73.143c-3.615 3.619-7.901 5.428-12.856 5.428s-9.24-1.81-12.86-5.428l-73.142-73.143c-3.619-3.622-5.428-7.908-5.428-12.859s1.81-9.237 5.428-12.856c3.623-3.619 7.904-5.428 12.86-5.428h36.573v-109.716h-109.716v36.573c0 4.955-1.81 9.24-5.428 12.859-3.623 3.619-7.908 5.428-12.859 5.428s-9.237-1.81-12.856-5.428l-73.143-73.142c-3.619-3.619-5.428-7.905-5.428-12.856s1.809-9.24 5.428-12.856l73.142-73.142c3.619-3.615 7.901-5.432 12.856-5.432s9.24 1.817 12.859 5.432c3.619 3.615 5.429 7.904 5.429 12.856v36.577h109.716v-109.716h-36.57c-4.955 0-9.24-1.813-12.86-5.428-3.619-3.619-5.428-7.904-5.428-12.856s1.81-9.24 5.428-12.863l73.142-73.135c3.623-3.615 7.908-5.428 12.86-5.428s9.244 1.813 12.856 5.428l73.139 73.135c3.623 3.623 5.432 7.911 5.432 12.863s-1.81 9.237-5.432 12.856c-3.615 3.615-7.904 5.428-12.856 5.428h-36.566v109.712h109.712v-36.577c0-4.952 1.809-9.24 5.425-12.856 3.622-3.615 7.912-5.432 12.863-5.432 4.948 0 9.234 1.817 12.856 5.432l73.139 73.142c3.619 3.619 5.428 7.908 5.428 12.86s-1.809 9.237-5.432 12.856z" horiz-adv-x="758" />
<glyph unicode="&#xe664;" d="M349.738 276.999l-194.571-194.571c-7.238-7.235-10.857-15.904-10.857-26 0-10.286 3.619-18.856 10.857-25.716l30.285-30.857c7.431-7.049 16.096-10.57 26-10.57 10.096 0 18.667 3.521 25.715 10.57l194.851 194.855c-18.66 7.431-35.184 18.337-49.57 32.715-14.378 14.381-25.281 30.906-32.712 49.573zM242.597 61.858c-3.623-3.615-7.908-5.428-12.859-5.428s-9.237 1.813-12.856 5.428c-3.619 3.619-5.428 7.904-5.428 12.856s1.81 9.24 5.428 12.863c3.619 3.615 7.901 5.425 12.856 5.425s9.24-1.81 12.859-5.425c3.619-3.623 5.429-7.911 5.429-12.863s-1.81-9.237-5.428-12.856zM610.742 326.144c-1.62 1.908-3.861 2.858-6.716 2.858-1.712 0-8.423-3.384-20.14-10.146s-24.621-14.473-38.716-23.141c-14.097-8.669-21.62-13.288-22.57-13.859l-55.149 30.572v64l83.712 48.289c3.048 2.094 4.573 4.763 4.573 7.999s-1.525 5.902-4.573 7.999c-8.381 5.716-18.621 10.145-30.713 13.287-12.095 3.142-23.668 4.713-34.714 4.713-35.237 0-65.378-12.526-90.424-37.572-25.053-25.046-37.572-55.191-37.572-90.428s12.526-65.382 37.572-90.428c25.046-25.046 55.188-37.572 90.424-37.572 26.862 0 51.481 7.957 73.861 23.861 22.377 15.904 38.046 36.618 46.999 62.142 4.376 12.762 6.568 22.858 6.568 30.285 0.007 2.851-0.807 5.232-2.423 7.14z" horiz-adv-x="758" />
<glyph unicode="&#xe665;" d="M550.165 151.415l-166 166c-11.622 12-25.81 18-42.573 18-15.62 0-28.855-5.428-39.712-16.286-10.861-10.857-16.289-24.096-16.289-39.715 0-16.762 6-30.955 18-42.573l117.143-117.143c1.904-1.904 4.005-2.854 6.288-2.854 3.048 0 7.526 2.953 13.424 8.855 5.906 5.906 8.855 10.384 8.855 13.431 0 2.279-0.95 4.377-2.854 6.284l-117.139 117.143c-4.762 5.144-7.144 10.762-7.144 16.857 0 5.527 1.81 10.096 5.428 13.716s8.192 5.428 13.716 5.428c6.477 0 12.19-2.283 17.145-6.856l165.997-166c12.004-11.997 18.004-25.803 18.004-41.423 0-12.197-4.001-22.289-12-30.288-8.006-7.999-18.096-12.004-30.288-12.004-15.62 0-29.426 6.003-41.423 18.004l-221.72 222.001c-14.476 14.476-21.711 31.716-21.711 51.716 0 20.192 6.951 37.432 20.855 51.716s30.951 21.427 51.144 21.427c19.428 0 36.664-7.333 51.712-21.995l173.144-173.428c1.904-1.908 4.092-2.854 6.572-2.854 3.048 0 7.476 2.904 13.284 8.714 5.811 5.808 8.711 10.237 8.711 13.284 0 2.283-0.951 4.38-2.851 6.285l-172.86 173.143c-21.904 21.525-47.904 32.288-78 32.288-30.285 0-55.903-10.573-76.856-31.716s-31.428-46.858-31.428-77.144c0-29.714 10.759-55.524 32.284-77.428l222.001-221.717c19.049-19.042 41.426-28.57 67.142-28.57 22.286 0 40.953 7.529 56.001 22.577 15.048 15.041 22.577 33.712 22.577 56.001-0.004 26.094-9.532 48.468-28.577 67.125z" horiz-adv-x="758" />
<glyph unicode="&#xe667;" d="M631.597 367.146c-14.287 14.284-31.519 21.427-51.712 21.427h-64l-14.567 38.856c-3.619 9.331-10.236 17.38-19.86 24.144-9.62 6.761-19.477 10.145-29.574 10.145h-146.288c-10.096 0-19.954-3.384-29.574-10.145-9.62-6.764-16.236-14.813-19.856-24.144l-14.571-38.856h-64c-20.192 0-37.429-7.143-51.715-21.427-14.284-14.287-21.427-31.523-21.427-51.715v-256c0-20.192 7.144-37.432 21.427-51.712 14.287-14.287 31.523-21.43 51.715-21.43h402.284c20.192 0 37.425 7.144 51.712 21.43 14.284 14.28 21.427 31.519 21.427 51.712v256c0.004 20.192-7.14 37.428-21.423 51.716zM469.168 97c-25.046-25.050-55.188-37.572-90.428-37.572s-65.378 12.523-90.428 37.572c-25.050 25.046-37.572 55.191-37.572 90.428 0 35.24 12.526 65.378 37.572 90.428s55.188 37.572 90.428 37.572 65.378-12.526 90.428-37.572 37.572-55.188 37.572-90.428c0-35.237-12.526-65.378-37.572-90.428zM378.74 269.716c-22.668 0-42.047-8.048-58.144-24.145s-24.144-35.475-24.144-58.143 8.048-42.047 24.144-58.144c16.096-16.093 35.476-24.141 58.144-24.141 22.665 0 42.047 8.048 58.144 24.141 16.096 16.096 24.144 35.476 24.144 58.144s-8.048 42.047-24.144 58.144c-16.096 16.096-35.479 24.144-58.144 24.144z" horiz-adv-x="758" />
<glyph unicode="&#xe669;" d="M571.883 270.855c-5.334 5.334-11.811 7.999-19.432 7.999h-118.858v118.861c0 7.617-2.668 14.094-7.999 19.428-5.334 5.331-11.808 7.999-19.431 7.999h-54.854c-7.617 0-14.094-2.665-19.428-7.999s-7.999-11.811-7.999-19.428v-118.861h-118.858c-7.617 0-14.094-2.665-19.428-7.999s-7.999-11.808-7.999-19.428v-54.861c0-7.62 2.665-14.094 7.999-19.425 5.334-5.334 11.811-7.999 19.428-7.999h118.858v-118.865c0-7.617 2.665-14.098 7.999-19.428s11.811-7.995 19.428-7.995h54.858c7.624 0 14.098 2.665 19.432 7.995 5.334 5.334 7.999 11.811 7.999 19.428v118.865h118.857c7.62 0 14.097 2.665 19.432 7.999 5.331 5.33 7.999 11.804 7.999 19.425v54.861c-0.004 7.62-2.665 14.098-8.003 19.428z" horiz-adv-x="758" />
<glyph unicode="&#xe66a;" d="M600.317 244.428c-10.766 10.766-23.671 16.145-38.719 16.145h-18.281v73.143c0 7.617-1.911 16.002-5.72 25.14-3.808 9.143-8.378 16.381-13.712 21.715l-43.433 43.429c-5.33 5.331-12.568 9.904-21.711 13.716-9.142 3.808-17.52 5.712-25.144 5.712h-192c-7.62 0-14.097-2.665-19.431-7.999-5.331-5.331-7.999-11.808-7.999-19.428v-155.427h-18.285c-15.048 0-27.953-5.383-38.715-16.145-10.762-10.759-16.142-23.664-16.142-38.712v-118.861c0-2.479 0.905-4.615 2.714-6.432 1.81-1.806 3.952-2.707 6.428-2.707h64v-45.716c0-7.62 2.665-14.098 7.999-19.428s11.811-7.999 19.431-7.999h274.284c7.617 0 14.101 2.668 19.432 7.999 5.331 5.334 7.999 11.808 7.999 19.428v45.716h64c2.472 0 4.615 0.901 6.424 2.707 1.809 1.817 2.711 3.952 2.711 6.432v118.861c0.004 15.048-5.372 27.953-16.131 38.712zM506.74 41.142h-256v73.139h256v-73.139zM506.74 224h-256v182.854h182.857v-45.712c0-7.62 2.672-14.094 7.999-19.428 5.334-5.334 11.808-7.999 19.432-7.999h45.712v-109.716zM574.453 192.856c-3.615-3.615-7.904-5.428-12.856-5.428s-9.237 1.813-12.856 5.428c-3.615 3.615-5.425 7.908-5.425 12.86s1.809 9.237 5.425 12.856c3.619 3.619 7.904 5.428 12.856 5.428s9.24-1.81 12.856-5.428c3.619-3.619 5.432-7.904 5.432-12.856s-1.809-9.244-5.432-12.86z" horiz-adv-x="758" />
<glyph unicode="&#xe66b;" d="M568.741 334.143c-19.621 33.616-46.238 60.233-79.855 79.854-33.623 19.621-70.33 29.43-110.143 29.43-39.81 0-76.526-9.809-110.143-29.43-33.62-19.618-60.237-46.234-79.858-79.854-19.625-33.62-29.433-70.337-29.433-110.143 0-39.81 9.812-76.519 29.429-110.143 19.621-33.613 46.238-60.233 79.858-79.855s70.334-29.43 110.143-29.43c39.81 0 76.526 9.808 110.143 29.43 33.616 19.618 60.234 46.238 79.855 79.855 19.617 33.62 29.426 70.337 29.426 110.143 0 39.81-9.808 76.526-29.423 110.143zM415.316 86.858c0-2.665-0.863-4.857-2.574-6.569-1.708-1.712-3.899-2.567-6.565-2.567h-54.861c-2.665 0-4.857 0.856-6.572 2.567s-2.57 3.903-2.57 6.568v54.861c0 2.665 0.856 4.857 2.57 6.572 1.715 1.708 3.906 2.563 6.572 2.563h54.861c2.665 0 4.857-0.856 6.565-2.563 1.712-1.715 2.574-3.906 2.574-6.572v-54.861zM484.885 255.716c-2.381-7.049-5.046-12.814-7.999-17.289s-7.192-9.048-12.719-13.712c-5.517-4.668-9.9-8.002-13.144-10.005-3.233-1.995-7.904-4.713-13.996-8.139-6.284-3.619-11.471-8.332-15.563-14.143-4.096-5.808-6.144-10.524-6.144-14.139 0-2.668-0.863-4.861-2.574-6.572-1.708-1.715-3.899-2.57-6.565-2.57h-54.861c-2.665 0-4.857 0.856-6.572 2.57-1.715 1.712-2.57 3.903-2.57 6.572v10.289c0 12.762 4.998 24.716 14.999 35.858 10.002 11.145 21.002 19.382 33.003 24.716 9.139 4.187 15.616 8.476 19.425 12.856 3.815 4.38 5.719 10.195 5.719 17.429 0 6.288-3.577 11.906-10.721 16.861-7.144 4.952-15.279 7.428-24.425 7.428-9.907 0-18.096-2.287-24.572-6.86-6.288-4.57-14.476-13.333-24.572-26.284-1.715-2.286-4.096-3.433-7.144-3.433-2.286 0-4.096 0.572-5.428 1.712l-37.712 28.571c-4.38 3.429-5.141 7.428-2.286 12 24.383 40.57 59.714 60.858 105.998 60.858 16.577 0 32.768-3.906 48.577-11.716 15.809-7.806 28.998-18.856 39.575-33.143 10.563-14.284 15.854-29.808 15.854-46.571-0.010-8.382-1.207-16.093-3.58-23.142z" horiz-adv-x="758" />
<glyph unicode="&#xe66e;" d="M587.022 423.722c-7.81 3.234-14.473 1.904-20-4.001l-37.144-36.861c-20.382 19.238-43.664 34.142-69.86 44.716-26.189 10.569-53.283 15.854-81.286 15.854-29.714 0-58.094-5.811-85.143-17.429s-50.383-27.234-70-46.855c-19.621-19.621-35.24-42.952-46.858-70s-17.429-55.426-17.429-85.143c0-29.71 5.811-58.095 17.429-85.143 11.621-27.048 27.238-50.38 46.858-70 19.618-19.614 42.952-35.233 70-46.851 27.048-11.622 55.43-17.433 85.143-17.433 32.761 0 63.913 6.905 93.433 20.715 29.52 13.806 54.665 33.284 75.433 58.428 1.519 1.904 2.234 4.047 2.135 6.428-0.087 2.381-1 4.331-2.711 5.856l-39.14 39.428c-2.101 1.712-4.474 2.567-7.144 2.567-3.048-0.378-5.236-1.526-6.572-3.43-13.904-18.099-30.952-32.098-51.144-42.005-20.189-9.904-41.616-14.851-64.284-14.851-19.807 0-38.712 3.858-56.713 11.572-18 7.712-33.575 18.141-46.714 31.284s-23.57 28.714-31.285 46.714-11.572 36.902-11.572 56.713c0 19.81 3.861 38.719 11.572 56.716s18.141 33.571 31.285 46.711c13.144 13.144 28.714 23.573 46.714 31.288 17.997 7.712 36.906 11.572 56.713 11.572 38.288 0 71.525-13.049 99.717-39.144l-39.438-39.424c-5.906-5.716-7.235-12.288-4.002-19.716 3.24-7.62 8.862-11.429 16.865-11.429h128c4.952 0 9.237 1.809 12.856 5.428 3.615 3.619 5.425 7.904 5.425 12.856v128c0 7.999-3.703 13.617-11.141 16.865z" horiz-adv-x="758" />
<glyph unicode="&#xe66f;" d="M456.452 224l84 84c5.334 5.331 7.999 11.808 7.999 19.428s-2.668 14.094-7.999 19.428l-38.856 38.86c-5.334 5.334-11.808 7.999-19.425 7.999-7.624 0-14.098-2.665-19.431-7.999l-84-84-84 84c-5.33 5.334-11.808 7.999-19.428 7.999-7.617 0-14.094-2.665-19.428-7.999l-38.859-38.86c-5.331-5.331-7.999-11.808-7.999-19.428s2.665-14.094 7.999-19.428l83.999-84-84-84c-5.331-5.334-7.999-11.808-7.999-19.428s2.665-14.094 7.999-19.428l38.859-38.856c5.334-5.334 11.811-7.999 19.428-7.999 7.62 0 14.094 2.668 19.428 7.999l84 84 84.003-84c5.334-5.334 11.804-7.999 19.431-7.999 7.617 0 14.094 2.668 19.425 7.999l38.853 38.856c5.334 5.33 7.999 11.808 7.999 19.428s-2.665 14.094-7.999 19.428l-84 84z" horiz-adv-x="758" />
<glyph unicode="&#xe670;" d="M619.597 245.999c-30.861 76.761-114.193 115.144-250.004 115.144h-64v73.142c0 4.955-1.81 9.24-5.428 12.859s-7.901 5.428-12.856 5.428c-4.955 0-9.24-1.809-12.86-5.428l-146.285-146.284c-3.619-3.623-5.428-7.908-5.428-12.86s1.809-9.237 5.428-12.856l146.285-146.288c3.623-3.615 7.908-5.432 12.86-5.432s9.237 1.817 12.856 5.432c3.619 3.615 5.428 7.904 5.428 12.856v73.146h64c18.663 0 35.377-0.568 50.137-1.712s29.433-3.191 44-6.144c14.575-2.953 27.241-7 38.003-12.144 10.763-5.148 20.809-11.762 30.145-19.856 9.335-8.101 16.956-17.713 22.861-28.858 5.902-11.145 10.52-24.331 13.856-39.572 3.332-15.238 5.001-32.477 5.001-51.712 0-10.471-0.481-22.192-1.428-35.142 0-1.139-0.235-3.377-0.716-6.712-0.473-3.335-0.712-5.856-0.712-7.572 0-2.851 0.807-5.236 2.423-7.14 1.624-1.904 3.865-2.854 6.719-2.854 3.048 0 5.712 1.62 7.999 4.861 1.329 1.712 2.563 3.808 3.714 6.284 1.143 2.476 2.43 5.33 3.857 8.567 1.431 3.244 2.43 5.52 2.999 6.856 24.19 54.279 36.285 97.231 36.285 128.849 0 37.902-5.047 69.618-15.143 95.141z" horiz-adv-x="758" />
<glyph unicode="&#xe671;" d="M586.451 296.143c-35.808 36.762-92.858 57.807-171.145 63.141v74.857c0 7.999-3.717 13.617-11.145 16.858-7.81 3.233-14.476 1.904-20-4.001l-146.281-146.285c-3.619-3.623-5.428-7.908-5.428-12.86s1.81-9.237 5.428-12.856l146.285-146.284c3.433-3.619 7.715-5.428 12.86-5.428 2.283 0 4.664 0.477 7.14 1.428 7.428 3.24 11.145 8.855 11.145 16.858v71.715c30.668-2.476 56.137-7.476 76.432-14.999 20.287-7.526 36.52-18.050 48.713-31.572 28.385-31.428 38.481-85.234 30.288-161.428-0.375-4.955 1.809-8.192 6.572-9.717 0.572-0.193 1.428-0.284 2.571-0.284 3.808 0 6.473 1.62 7.999 4.857l5.712 11.429c2.665 5.334 6.523 13.954 11.569 25.86 5.047 11.909 9.623 23.812 13.719 35.718 4.096 11.902 7.76 25.046 11.001 39.424 3.237 14.389 4.857 27.101 4.857 38.144-0.004 64-16.1 112.475-48.293 145.429zM186.736 287.852c0 4.955 1.81 9.24 5.428 12.86l113.429 113.713v19.716c0 7.999-3.717 13.617-11.145 16.858-7.81 3.233-14.476 1.904-20-4.002l-146.285-146.284c-3.619-3.623-5.428-7.908-5.428-12.86s1.809-9.237 5.428-12.856l146.285-146.284c3.43-3.619 7.715-5.428 12.86-5.428 2.286 0 4.668 0.477 7.144 1.428 7.428 3.24 11.145 8.855 11.145 16.858v20l-113.433 113.429c-3.619 3.619-5.428 7.901-5.428 12.856z" horiz-adv-x="758" />
<glyph unicode="&#xe675;" d="M605.879 48.57l-97.999 97.999c23.619 34.094 35.433 72.097 35.433 114 0 27.238-5.288 53.286-15.861 78.143-10.569 24.86-24.856 46.287-42.857 64.287s-39.424 32.288-64.281 42.857c-24.863 10.573-50.913 15.858-78.15 15.858s-53.286-5.285-78.143-15.858c-24.86-10.57-46.287-24.857-64.287-42.857s-32.287-39.431-42.857-64.287c-10.573-24.86-15.858-50.906-15.858-78.143s5.285-53.279 15.858-78.143c10.57-24.856 24.857-46.28 42.857-64.281 18-18.004 39.431-32.288 64.287-42.861 24.86-10.573 50.906-15.858 78.143-15.858 41.911 0 79.911 11.815 114.004 35.433l97.999-97.712c6.856-7.238 15.419-10.857 25.712-10.857 9.904 0 18.481 3.619 25.712 10.857 7.238 7.235 10.857 15.809 10.857 25.712 0.004 10.089-3.518 18.663-10.569 25.709zM432.594 170.146c-25.050-25.050-55.191-37.572-90.431-37.572-35.237 0-65.378 12.526-90.428 37.572-25.049 25.050-37.572 55.188-37.572 90.428 0 35.237 12.526 65.382 37.572 90.428 25.046 25.050 55.191 37.572 90.428 37.572s65.378-12.526 90.431-37.572c25.050-25.046 37.576-55.191 37.576-90.428 0-35.24-12.53-65.378-37.576-90.428z" horiz-adv-x="758" />
<glyph unicode="&#xe677;" d="M574.022 382.709c-16.096 16.093-35.472 24.141-58.144 24.141h-91.423c-2.479 0-4.433-0.613-5.856-1.855-1.431-1.238-2.385-3.096-2.858-5.572-0.477-2.476-0.761-4.713-0.852-6.712-0.094-1.999-0.053-4.524 0.144-7.572 0.186-3.048 0.281-4.952 0.281-5.716 0.572-1.525 0.768-2.813 0.572-3.857-0.193-1.045 0.477-1.904 1.999-2.571s2.283-1.192 2.283-1.571c0-0.379 1.094-0.663 3.289-0.856 2.192-0.193 3.289-0.284 3.289-0.284h89.148c12.568 0 23.327-4.474 32.28-13.431 8.957-8.953 13.431-19.712 13.431-32.284v-201.142c0-12.572-4.475-23.331-13.431-32.284-8.953-8.953-19.712-13.428-32.28-13.428h-91.427c-2.479 0-4.436-0.62-5.856-1.858-1.431-1.241-2.381-3.093-2.858-5.569-0.477-2.479-0.761-4.716-0.856-6.716s-0.049-4.524 0.144-7.572 0.288-4.952 0.288-5.712c0-2.479 0.898-4.615 2.707-6.432 1.813-1.806 3.952-2.711 6.431-2.711h91.427c22.665 0 42.047 8.048 58.136 24.148 16.096 16.093 24.144 35.476 24.144 58.14v201.139c-0.010 22.668-8.058 42.047-24.151 58.137zM497.604 224c0 4.952-1.817 9.24-5.432 12.859l-155.43 155.43c-3.619 3.615-7.901 5.429-12.856 5.429s-9.24-1.813-12.86-5.429c-3.619-3.619-5.428-7.908-5.428-12.859v-82.284h-128c-4.955 0-9.24-1.813-12.859-5.428-3.619-3.619-5.429-7.908-5.429-12.859v-109.716c0-4.952 1.81-9.24 5.428-12.856 3.623-3.615 7.908-5.432 12.859-5.432h128v-82.284c0-4.948 1.81-9.24 5.428-12.856 3.623-3.619 7.908-5.428 12.86-5.428s9.237 1.81 12.856 5.428l155.43 155.427c3.615 3.623 5.432 7.908 5.432 12.859z" horiz-adv-x="758" />
<glyph unicode="&#xe678;" d="M337.598 68.573c-0.572 1.526-0.768 2.82-0.575 3.868 0.193 1.041-0.474 1.904-1.999 2.567s-2.286 1.192-2.286 1.571-1.094 0.666-3.286 0.856c-2.192 0.193-3.286 0.288-3.286 0.288h-89.141c-12.572 0-23.334 4.471-32.287 13.428-8.953 8.953-13.428 19.712-13.428 32.281v201.146c0 12.572 4.475 23.331 13.428 32.284s19.715 13.431 32.287 13.431h91.427c2.476 0 4.425 0.613 5.856 1.855 1.428 1.238 2.377 3.096 2.854 5.572s0.764 4.713 0.859 6.712c0.094 1.999 0.049 4.524-0.144 7.572-0.19 3.048-0.284 4.952-0.284 5.716 0 2.476-0.905 4.615-2.714 6.428-1.81 1.806-3.952 2.711-6.428 2.711h-91.427c-22.665 0-42.047-8.048-58.144-24.141-16.093-16.096-24.141-35.475-24.141-58.143v-201.139c0-22.665 8.048-42.047 24.141-58.14 16.096-16.1 35.479-24.148 58.144-24.148h91.43c2.476 0 4.425 0.62 5.856 1.855 1.428 1.241 2.377 3.096 2.854 5.576 0.477 2.473 0.764 4.716 0.859 6.712 0.094 1.999 0.049 4.521-0.144 7.568-0.19 3.048-0.284 4.952-0.284 5.716zM597.311 236.859l-155.427 155.43c-3.615 3.615-7.904 5.429-12.856 5.429s-9.24-1.813-12.86-5.429c-3.619-3.619-5.428-7.908-5.428-12.859v-82.284h-128c-4.955 0-9.24-1.813-12.86-5.428-3.619-3.619-5.428-7.908-5.428-12.859v-109.716c0-4.952 1.81-9.24 5.428-12.856 3.623-3.615 7.908-5.432 12.86-5.432h128v-82.284c0-4.948 1.81-9.24 5.428-12.856 3.619-3.619 7.908-5.428 12.86-5.428s9.24 1.81 12.856 5.428l155.427 155.427c3.619 3.619 5.428 7.904 5.428 12.856s-1.809 9.244-5.428 12.863z" horiz-adv-x="758" />
<glyph unicode="&#xe67a;" d="M424.887 152.159c30.948 13.049 55.38 30.811 73.282 53.286s26.856 46.95 26.856 73.426-8.953 50.955-26.863 73.43c-17.899 22.475-42.327 40.237-73.279 53.286s-64.617 19.572-101.001 19.572c-36.38 0-70.046-6.526-101.001-19.572-30.952-13.049-55.38-30.811-73.282-53.286-17.906-22.479-26.859-46.953-26.859-73.43 0-22.665 6.772-44.007 20.294-64.007 13.523-19.996 32.094-36.857 55.714-50.569-1.904-4.577-3.857-8.76-5.857-12.575-2.002-3.808-4.38-7.473-7.143-11.001-2.763-3.524-4.903-6.284-6.428-8.279-1.525-1.999-4.001-4.815-7.431-8.427-3.429-3.619-5.621-6-6.572-7.144 0 0.197-0.382-0.235-1.143-1.284-0.764-1.048-1.192-1.522-1.287-1.431-0.095 0.098-0.477-0.375-1.143-1.424s-1-1.571-1-1.571l-0.715-1.428c-0.284-0.572-0.477-1.136-0.571-1.712-0.095-0.568-0.144-1.192-0.144-1.855s0.095-1.284 0.287-1.855c0.382-2.476 1.476-4.471 3.286-6 1.81-1.522 3.76-2.283 5.857-2.283h0.859c9.521 1.332 17.713 2.858 24.569 4.573 29.335 7.617 55.811 19.81 79.43 36.573 17.142-3.048 33.904-4.573 50.284-4.573 36.38-0.010 70.050 6.512 101.001 19.558zM614.452 141.589c13.526 19.905 20.287 41.279 20.287 64.141 0 23.429-7.15 45.347-21.431 65.726-14.287 20.379-33.718 37.334-58.288 50.856 4.376-14.284 6.568-28.76 6.568-43.429 0-25.523-6.375-49.713-19.144-72.571-12.761-22.854-31.050-43.043-54.858-60.57-22.096-15.998-47.241-28.282-75.433-36.857-28.185-8.567-57.614-12.856-88.281-12.856-5.712 0-14.094 0.378-25.14 1.139 38.284-25.14 83.238-37.712 134.856-37.712 16.384 0 33.143 1.526 50.288 4.573 23.615-16.766 50.096-28.952 79.427-36.573 6.856-1.719 15.048-3.24 24.572-4.573 2.283-0.193 4.384 0.474 6.288 1.999s3.142 3.615 3.714 6.281c-0.091 1.143 0 1.767 0.288 1.858 0.28 0.091 0.231 0.712-0.144 1.855-0.379 1.143-0.572 1.715-0.572 1.715l-0.712 1.424c-0.197 0.378-0.523 0.905-1 1.571-0.477 0.659-0.856 1.139-1.143 1.428-0.284 0.284-0.708 0.761-1.284 1.424-0.568 0.663-0.951 1.094-1.143 1.287-0.951 1.139-3.139 3.521-6.568 7.14s-5.905 6.428-7.428 8.427-3.668 4.759-6.428 8.286c-2.76 3.521-5.144 7.189-7.144 11.001-1.999 3.808-3.952 7.999-5.856 12.569 23.615 13.726 42.184 30.534 55.707 50.442z" horiz-adv-x="758" />
<glyph unicode="&#xe67b;" d="M259.882 128.003c-11.433 0-21.147-3.998-29.145-12s-12-17.716-12-29.149 3.998-21.143 12-29.149c8.002-7.999 17.716-12 29.145-12 11.24 0 20.904 4.002 29.002 12 8.094 7.995 12.14 17.716 12.14 29.149s-4.047 21.139-12.14 29.149c-8.098 7.995-17.762 12-29.002 12zM250.739 214.858c0 12.572-4.475 23.331-13.428 32.291-8.953 8.953-19.715 13.428-32.287 13.428s-23.334-4.475-32.287-13.428c-8.953-8.953-13.428-19.715-13.428-32.291 0-12.569 4.475-23.324 13.428-32.281s19.715-13.431 32.287-13.431 23.334 4.474 32.287 13.431c8.953 8.95 13.428 19.712 13.428 32.281zM515.882 319.996c6.281 0 11.671 2.241 16.142 6.716 4.475 4.478 6.716 9.861 6.716 16.145 0 6.288-2.241 11.668-6.716 16.142-4.475 4.478-9.861 6.715-16.142 6.715-6.288 0-11.671-2.241-16.145-6.715s-6.716-9.854-6.716-16.142 2.241-11.667 6.716-16.145 9.858-6.716 16.145-6.716zM259.885 393.142c-13.908 0-25.765-4.906-35.573-14.714-9.812-9.808-14.714-21.666-14.714-35.57 0-13.908 4.903-25.762 14.714-35.574s21.669-14.714 35.573-14.714c13.904 0 25.762 4.906 35.57 14.714 9.808 9.812 14.714 21.669 14.714 35.574s-4.906 25.762-14.714 35.57-21.666 14.714-35.57 14.714zM590.168 234.289c-5.334 5.334-11.808 7.999-19.428 7.999s-14.097-2.665-19.428-7.999-7.995-11.811-7.995-19.435c0-7.617 2.665-14.101 7.995-19.425 5.334-5.334 11.808-7.999 19.428-7.999s14.097 2.665 19.428 7.999c5.334 5.33 7.995 11.808 7.995 19.425 0 7.62-2.658 14.097-7.995 19.435zM515.882 118.858c-8.767 0-16.293-3.142-22.577-9.426s-9.426-13.81-9.426-22.577c0-8.76 3.142-16.289 9.426-22.574 6.288-6.288 13.81-9.426 22.577-9.426 8.76 0 16.286 3.142 22.573 9.426 6.284 6.284 9.427 13.81 9.427 22.574 0 8.767-3.142 16.289-9.427 22.577-6.288 6.284-13.813 9.426-22.573 9.426zM387.882 68.577c-10.096 0-18.716-3.577-25.863-10.721-7.14-7.144-10.714-15.76-10.714-25.856s3.57-18.712 10.714-25.856c7.147-7.144 15.764-10.721 25.863-10.721 10.096 0 18.712 3.577 25.856 10.721s10.717 15.76 10.717 25.856-3.574 18.712-10.717 25.856-15.76 10.721-25.856 10.721zM387.882 452.573c-15.238 0-28.195-5.33-38.863-15.998-10.664-10.668-15.998-23.622-15.998-38.859s5.33-28.188 15.998-38.856c10.668-10.665 23.622-15.998 38.863-15.998 15.245 0 28.192 5.331 38.856 15.998 10.664 10.664 15.998 23.618 15.998 38.856s-5.334 28.188-15.998 38.86c-10.664 10.664-23.611 15.998-38.856 15.998z" horiz-adv-x="758" />
<glyph unicode="&#xe67d;" d="M616.452 275c0 7.049-5.331 11.429-16.005 13.144l-143.419 20.855-64.284 129.999c-3.615 7.81-8.286 11.713-14 11.713s-10.38-3.903-14-11.713l-64.288-129.999-143.427-20.855c-10.665-1.715-15.998-6.095-15.998-13.144 0-4.001 2.381-8.574 7.143-13.716l103.999-101.141-24.569-142.855c-0.382-2.668-0.571-4.577-0.571-5.716 0-4.002 1-7.378 2.999-10.146 1.999-2.764 4.998-4.142 8.999-4.142 3.429 0 7.238 1.136 11.429 3.426l128.28 67.433 128.291-67.433c4.005-2.286 7.814-3.426 11.425-3.426 3.819 0 6.719 1.375 8.718 4.142 1.995 2.764 2.995 6.144 2.995 10.146 0 2.476-0.095 4.38-0.288 5.716l-24.572 142.855 103.712 101.141c4.958 4.952 7.431 9.524 7.431 13.715z" horiz-adv-x="758" />
<glyph unicode="&#xe680;" d="M141.596 351.428c-12.572-12.572-18.856-27.62-18.856-45.14v-237.712c0-17.527 6.284-32.575 18.856-45.144 12.572-12.575 27.62-18.856 45.144-18.856h18.285v365.712h-18.285c-17.527 0-32.575-6.288-45.144-18.86zM488.452 416c0 7.62-2.665 14.094-7.999 19.428-5.33 5.334-11.808 7.999-19.425 7.999h-164.573c-7.617 0-14.094-2.665-19.428-7.999-5.334-5.331-7.999-11.808-7.999-19.428v-45.712h-36.573v-365.712h292.573v365.712h-36.577v45.712zM451.882 370.288h-146.285v36.569h146.284v-36.569zM615.884 351.428c-12.572 12.572-27.62 18.86-45.144 18.86h-18.288v-365.712h18.288c17.524 0 32.572 6.281 45.144 18.856 12.568 12.568 18.856 27.616 18.856 45.144v237.712c0 17.52-6.288 32.568-18.856 45.14z" horiz-adv-x="758" />
<glyph unicode="&#xe681;" d="M603.028 411.714c-8.953 8.953-19.712 13.428-32.288 13.428h-384c-12.572 0-23.334-4.474-32.287-13.428-8.953-8.957-13.428-19.715-13.428-32.287v-310.861c0-12.572 4.475-23.324 13.428-32.284 8.953-8.957 19.715-13.424 32.287-13.424h384c12.576 0 23.335 4.467 32.288 13.424 8.953 8.96 13.424 19.716 13.424 32.284v310.861c0 12.572-4.471 23.334-13.424 32.288zM287.313 68.577c0-2.672-0.859-4.861-2.574-6.575-1.715-1.712-3.903-2.563-6.572-2.563h-91.427c-2.665 0-4.857 0.852-6.572 2.563-1.715 1.715-2.571 3.903-2.571 6.575v54.861c0 2.668 0.856 4.857 2.571 6.565 1.715 1.719 3.906 2.574 6.572 2.574h91.43c2.668 0 4.861-0.856 6.572-2.574 1.712-1.708 2.57-3.896 2.57-6.565v-54.861zM287.313 178.284c0-2.665-0.859-4.857-2.574-6.568-1.715-1.715-3.903-2.57-6.572-2.57h-91.427c-2.665 0-4.857 0.856-6.572 2.57-1.715 1.712-2.571 3.903-2.571 6.568v54.861c0 2.665 0.856 4.857 2.571 6.572 1.715 1.712 3.906 2.567 6.572 2.567h91.43c2.668 0 4.857-0.856 6.572-2.567 1.712-1.715 2.57-3.906 2.57-6.572v-54.861zM287.313 288c0-2.668-0.859-4.857-2.574-6.572-1.715-1.712-3.903-2.571-6.572-2.571h-91.427c-2.665 0-4.857 0.859-6.572 2.571-1.715 1.715-2.571 3.903-2.571 6.572v54.858c0 2.668 0.856 4.861 2.571 6.572 1.715 1.715 3.906 2.57 6.572 2.57h91.43c2.668 0 4.857-0.856 6.572-2.57 1.712-1.712 2.57-3.903 2.57-6.572v-54.858zM433.598 68.577c0-2.672-0.856-4.861-2.563-6.575-1.712-1.712-3.903-2.563-6.575-2.563h-91.434c-2.665 0-4.857 0.852-6.572 2.563-1.715 1.715-2.57 3.903-2.57 6.575v54.861c0 2.668 0.856 4.857 2.57 6.565 1.715 1.719 3.906 2.574 6.572 2.574h91.43c2.672 0 4.864-0.856 6.575-2.574 1.708-1.708 2.563-3.896 2.563-6.565v-54.861zM433.598 178.284c0-2.665-0.856-4.857-2.563-6.568-1.712-1.715-3.903-2.57-6.575-2.57h-91.434c-2.665 0-4.857 0.856-6.572 2.57-1.715 1.712-2.57 3.903-2.57 6.568v54.861c0 2.665 0.856 4.857 2.57 6.572 1.715 1.712 3.906 2.567 6.572 2.567h91.43c2.672 0 4.864-0.856 6.575-2.567 1.708-1.715 2.563-3.906 2.563-6.572v-54.861zM433.598 288c0-2.668-0.856-4.857-2.563-6.572-1.712-1.712-3.903-2.571-6.575-2.571h-91.434c-2.665 0-4.857 0.859-6.572 2.571-1.715 1.715-2.57 3.903-2.57 6.572v54.858c0 2.668 0.856 4.861 2.57 6.572 1.715 1.715 3.906 2.57 6.572 2.57h91.43c2.672 0 4.864-0.856 6.575-2.57 1.708-1.712 2.563-3.903 2.563-6.572v-54.858zM579.882 68.577c0-2.672-0.856-4.861-2.567-6.575-1.718-1.712-3.91-2.563-6.576-2.563h-91.423c-2.672 0-4.864 0.852-6.575 2.563-1.712 1.715-2.56 3.903-2.56 6.575v54.861c0 2.668 0.849 4.857 2.56 6.565 1.712 1.719 3.903 2.574 6.575 2.574h91.423c2.665 0 4.857-0.856 6.576-2.574 1.712-1.708 2.567-3.896 2.567-6.565v-54.861zM579.882 178.284c0-2.665-0.856-4.857-2.567-6.568-1.718-1.715-3.91-2.57-6.576-2.57h-91.423c-2.672 0-4.864 0.856-6.575 2.57-1.712 1.712-2.56 3.903-2.56 6.568v54.861c0 2.665 0.849 4.857 2.56 6.572 1.712 1.712 3.903 2.567 6.575 2.567h91.423c2.665 0 4.857-0.856 6.576-2.567 1.712-1.715 2.567-3.906 2.567-6.572v-54.861zM579.882 288c0-2.668-0.856-4.857-2.567-6.572-1.718-1.712-3.91-2.571-6.576-2.571h-91.423c-2.672 0-4.864 0.859-6.575 2.571-1.712 1.715-2.56 3.903-2.56 6.572v54.858c0 2.668 0.849 4.861 2.56 6.572 1.712 1.715 3.903 2.57 6.575 2.57h91.423c2.665 0 4.857-0.856 6.576-2.57 1.712-1.712 2.567-3.903 2.567-6.572v-54.858z" horiz-adv-x="758" />
<glyph unicode="&#xe682;" d="M584.602 210.432l-204.288 204c-7.238 7.241-16.952 13.382-29.142 18.428-12.194 5.047-23.334 7.572-33.431 7.572h-118.858c-9.907 0-18.477-3.623-25.715-10.857-7.238-7.238-10.857-15.809-10.857-25.716v-118.858c0-10.096 2.522-21.234 7.572-33.428s11.19-21.809 18.428-28.858l204.285-204.572c7.049-7.049 15.616-10.573 25.716-10.573 9.9 0 18.572 3.524 26 10.573l140.288 140.572c7.049 7.053 10.569 15.616 10.569 25.712 0 9.904-3.521 18.572-10.566 26.003zM279.598 323.145c-7.147-7.143-15.764-10.717-25.859-10.717-10.093 0-18.713 3.573-25.856 10.717s-10.714 15.76-10.714 25.856 3.57 18.716 10.714 25.856c7.143 7.144 15.763 10.717 25.856 10.717 10.096 0 18.716-3.574 25.859-10.717 7.14-7.14 10.714-15.76 10.714-25.856s-3.57-18.712-10.714-25.856z" horiz-adv-x="758" />
<glyph unicode="&#xe683;" d="M540.311 184.428c0 9.904-3.524 18.572-10.573 26.003l-204.284 204c-7.238 7.242-16.952 13.382-29.142 18.428s-23.334 7.572-33.431 7.572h-118.858c-9.904 0-18.477-3.623-25.712-10.857-7.242-7.238-10.861-15.809-10.861-25.715v-118.858c0-10.096 2.522-21.234 7.572-33.428s11.194-21.809 18.429-28.858l204.288-204.572c7.049-7.049 15.62-10.573 25.712-10.573 9.907 0 18.576 3.524 26.003 10.573l140.288 140.572c7.045 7.053 10.569 15.616 10.569 25.712zM224.74 323.145c-7.143-7.143-15.763-10.717-25.859-10.717-10.093 0-18.713 3.573-25.856 10.717s-10.714 15.76-10.714 25.856 3.57 18.716 10.714 25.856c7.143 7.144 15.763 10.717 25.856 10.717 10.096 0 18.716-3.574 25.859-10.717 7.14-7.14 10.714-15.76 10.714-25.856s-3.573-18.712-10.714-25.856zM639.449 210.428l-204.284 204c-7.238 7.241-16.952 13.382-29.145 18.428-12.187 5.047-23.331 7.572-33.428 7.572h-64c10.096 0 21.238-2.525 33.428-7.572 12.193-5.050 21.908-11.19 29.145-18.428l204.284-204c7.053-7.428 10.58-16.096 10.58-26 0-10.096-3.528-18.66-10.58-25.712l-134.284-134.288c5.719-5.906 10.762-10.188 15.142-12.856s10.002-4.002 16.858-4.002c9.907 0 18.576 3.524 26 10.573l140.284 140.572c7.053 7.053 10.58 15.616 10.58 25.712-0.004 9.904-3.528 18.572-10.58 26z" horiz-adv-x="758" />
<glyph unicode="&#xe684;" d="M574.022 419.286c-16.090 16.093-35.472 24.141-58.136 24.141h-274.288c-22.665 0-42.047-8.048-58.144-24.141-16.093-16.096-24.141-35.479-24.141-58.144v-274.284c0-22.665 8.048-42.047 24.141-58.144 16.096-16.096 35.479-24.144 58.144-24.144h274.284c22.665 0 42.047 8.048 58.136 24.144 16.096 16.096 24.144 35.479 24.144 58.144v274.284c0 22.665-8.048 42.050-24.141 58.144zM518.73 110.308c-3.998-8.76-13-16.384-26.995-22.861-14-6.477-26.431-9.717-37.288-9.717-3.051 0-6.291 0.235-9.717 0.712-3.426 0.481-6.33 0.95-8.711 1.428-2.377 0.477-5.524 1.332-9.426 2.57-3.906 1.238-6.719 2.192-8.43 2.854-1.715 0.666-4.857 1.858-9.426 3.57-4.57 1.719-7.431 2.767-8.567 3.142-31.239 11.433-61.766 32.049-91.575 61.858-29.808 29.815-50.428 60.336-61.858 91.571-0.379 1.143-1.428 4.001-3.142 8.571s-2.907 7.715-3.573 9.427c-0.663 1.715-1.617 4.524-2.855 8.427-1.238 3.906-2.094 7.046-2.571 9.43-0.477 2.377-0.951 5.281-1.428 8.711s-0.715 6.67-0.715 9.717c0 10.857 3.24 23.286 9.718 37.285s14.094 22.998 22.857 26.999c10.096 4.191 19.716 6.288 28.858 6.288 2.094 0 3.619-0.193 4.57-0.572 0.954-0.386 2.525-2.097 4.716-5.144s4.573-6.905 7.144-11.572c2.57-4.668 5.096-9.192 7.572-13.572s4.857-8.711 7.144-13c2.286-4.282 3.714-7 4.286-8.139 0.572-0.957 1.81-2.763 3.714-5.432 1.904-2.665 3.335-5.043 4.286-7.14s1.428-4.096 1.428-6c0-2.862-1.954-6.337-5.856-10.43-3.906-4.096-8.192-7.859-12.86-11.288s-8.953-7.098-12.856-11.001c-3.903-3.903-5.856-7.095-5.856-9.57 0-1.333 0.333-2.904 1-4.713 0.666-1.813 1.287-3.29 1.858-4.429 0.572-1.143 1.476-2.763 2.714-4.861s2.048-3.429 2.426-4.001c10.475-18.857 22.524-35.097 36.142-48.713 13.62-13.624 29.858-25.67 48.717-36.149 0.568-0.378 1.904-1.189 4.005-2.426 2.094-1.238 3.717-2.139 4.857-2.711 1.143-0.572 2.616-1.192 4.429-1.855s3.384-1 4.72-1c3.041 0 7.231 3.142 12.568 9.426 5.334 6.291 10.766 12.526 16.289 18.719 5.524 6.186 9.995 9.279 13.428 9.279 1.904 0 3.903-0.474 6.003-1.424 2.097-0.954 4.471-2.385 7.14-4.289 2.668-1.908 4.474-3.142 5.428-3.721l15.139-8.279c10.096-5.334 18.523-10.047 25.288-14.143 6.761-4.096 10.429-6.901 11.001-8.423 0.379-0.954 0.568-2.479 0.568-4.577-0.010-9.139-2.104-18.758-6.306-28.83z" horiz-adv-x="758" />
</font>
</defs>
</svg>
